<?xml version="1.0" standalone="no"?>
<!DOCTYPE svg PUBLIC "-//W3C//DTD SVG 1.1//EN" "http://www.w3.org/Graphics/SVG/1.1/DTD/svg11.dtd" >
<svg xmlns="http://www.w3.org/2000/svg">
<metadata>Generated by IcoMoon</metadata>
<defs>
<font id="icomoon" horiz-adv-x="1024">
<font-face units-per-em="1024" ascent="960" descent="-64" />
<missing-glyph horiz-adv-x="1024" />
<glyph unicode="&#x20;" horiz-adv-x="512" d="" />
<glyph unicode="&#xe900;" glyph-name="smiley-speechbubble" d="M996.496 640.101c67.789-192.007 6.93-405.889-151.789-533.445-154.108-123.851-367.844-140.094-538.42-42.519l-260.574-124.069c-27.18-12.941-55.55 15.429-42.609 42.609l124.066 260.567c-83.099 145.184-84.567 323.785-2.811 470.71 84.623 152.079 245.088 246.278 419.123 246.046 203.601 0.348 385.23-127.908 453.013-319.899zM703.338 384.542c0 17.656-14.313 31.97-31.97 31.97h-255.759c-17.656 0-31.97-14.313-31.97-31.97 0-88.282 71.567-159.85 159.85-159.85s159.85 71.567 159.85 159.85zM399.624 544.391c0 26.485-21.47 47.955-47.974 47.955-26.476-0.010-47.936-21.476-47.936-47.955 0-26.485 21.47-47.955 47.955-47.955s47.955 21.47 47.955 47.955zM783.263 544.391c0 26.485-21.47 47.955-47.974 47.955-26.476-0.010-47.936-21.476-47.936-47.955 0-26.485 21.47-47.955 47.955-47.955s47.955 21.47 47.955 47.955z" />
<glyph unicode="&#xe901;" glyph-name="flare" d="M533.216-33.226c-2.68-25.467-39.752-25.468-42.432 0-39.45 374.857-65.559 407.096-366.164 455.332-23.938 3.841-23.938 38.287 0 42.128 300.605 48.236 326.713 80.475 366.164 455.332 2.68 25.467 39.752 25.467 42.432 0 39.426-374.654 65.529-407.061 365.68-455.254 1.504-0.205 2.967-0.57 4.368-1.079 3.455-1.247 6.448-3.34 8.775-5.996 2.514-2.813 4.354-6.51 5.024-10.687 0.179-1.113 0.268-2.219 0.272-3.312 0.003-1.125-0.086-2.283-0.272-3.448-0.216-1.348-0.554-2.646-1.001-3.884-1.21-3.332-3.235-6.315-5.871-8.668-3.229-2.827-7.103-4.637-11.295-5.21-300.151-48.194-326.254-80.601-365.68-455.254z" />
<glyph unicode="&#xe902;" glyph-name="award" d="M658.739 192h-302.063l55.885 190.002c32.167-6.331 65.416-9.65 99.439-9.65 32.913 0 65.101 3.106 96.286 9.040l50.453-189.392zM288 128c-17.673 0-32-14.327-32-32v-64c0-17.673 14.327-32 32-32h448c17.673 0 32 14.327 32 32v64c0 17.673-14.327 32-32 32h-448zM75.648 896h872.704c3.089 0 6.052-1.227 8.236-3.412s3.412-5.147 3.412-8.236c0-247.424-200.576-448-448-448s-448 200.576-448 448c0 6.433 5.215 11.648 11.648 11.648zM527.282 822.752c-2.921 5.664-8.753 9.23-15.125 9.248s-12.225-3.515-15.177-9.162l-35.538-69.938h-60.491c-6.81 0.149-13.018-3.881-15.656-10.161s-1.168-13.534 3.705-18.292l55.569-54.687-30.786-70.706c-2.763-6.637-0.984-14.297 4.42-19.038s13.231-5.507 19.452-1.903l74.405 41.911 74.405-41.911c6.222-3.626 14.065-2.871 19.482 1.875s7.195 12.422 4.419 19.066l-30.786 70.706 55.654 54.601c4.869 4.755 6.34 12.002 3.71 18.279s-8.828 10.311-15.632 10.174h-60.52l-35.509 69.938z" />
<glyph unicode="&#xe903;" glyph-name="speechbubbles" d="M303.829 655.249c0-27.339-22.276-49.561-49.707-49.561s-49.682 22.222-49.682 49.561c0 27.39 22.251 49.561 49.682 49.561s49.707-22.171 49.707-49.561zM462.862 655.249c0-27.339-22.251-49.561-49.707-49.561-27.431 0-49.707 22.222-49.707 49.561 0 27.39 22.276 49.561 49.707 49.561 27.456 0 49.707-22.171 49.707-49.561zM621.872 655.249c0-27.339-22.251-49.561-49.682-49.561-27.456 0-49.733 22.222-49.733 49.561 0 27.39 22.276 49.561 49.733 49.561 27.431 0 49.682-22.171 49.682-49.561zM825.431 613.496c-20.172 4.304-41.383 7.413-63.575 9.358 0.247 5.794 0.256 11.688 0.027 17.683-5.054 132.104-150.525 239.224-334.679 239.224-121.818 0-223.202-26-281.834-85.666-36.161-36.767-54.020-86.519-52.801-149.655 0.971-50.314-1.62-197.326-6.262-393.673 78.581 104.268 147.98 164.473 209.944 164.473 4.848 0 9.594-0.325 13.822-0.96 15.319-2.104 30.544-3.782 45.594-5.028-6.656-20.106-10.891-41.217-12.411-63.157-13.961 1.27-28.063 2.882-42.274 4.835-1.337 0.2-2.937 0.309-4.731 0.309-45.212 0-127.907-87.465-217.848-222.893-17.762-26.745-59.45-13.592-58.647 18.504 6.173 246.713 9.935 438.835 8.825 496.354-1.537 79.631 22.329 146.119 71.151 195.758 73.647 74.946 190.055 104.798 327.473 104.798 215.455 0 392.102-130.077 398.632-300.782 0.381-9.999 0.245-19.83-0.405-29.483zM703.612 561.309c105.295 0 189.841-24.404 242.858-78.356 37.296-37.92 55.070-88.386 53.924-147.772-0.602-31.197 0.779-120.025 3.887-254.948l2.9-125.898c0.153-6.639-2.795-12.971-7.974-17.128-9.188-7.375-22.616-5.905-29.991 3.283l-78.829 98.208c-43.11 53.708-74.981 76.902-93.876 76.837-30.172-4.15-59.239-6.204-87.15-6.204-105.767 0-194.818 29.242-249.421 85.79-37.153 38.539-55.172 86.372-53.113 140.403 4.984 130.288 138.603 225.786 296.784 225.786zM703.612 497.309c-128.652 0-229.385-74.176-232.83-164.224-1.401-36.76 10.258-67.637 35.199-93.509 40.583-42.028 112.691-66.246 203.381-66.246 24.904 0 51.063 1.843 77.636 5.493 3.402 0.511 7.267 0.776 11.192 0.776 43.916 0 90.375-36.389 142.108-100.84-2.956 128.362-4.551 223.497-3.892 257.656 0.836 43.307-11.228 76.915-35.584 101.68-40.262 40.972-111.397 59.214-197.21 59.214zM792.716 344.050h-4.267c0-22.106 18.004-40.061 40.166-40.061 22.159 0 40.148 17.951 40.148 40.061 0 22.134-17.977 40.061-40.148 40.061-22.174 0-40.166-17.929-40.166-40.061h4.267zM677.859 344.050h-4.267c0-22.112 17.992-40.061 40.166-40.061 22.162 0 40.166 17.954 40.166 40.061 0 22.131-17.992 40.061-40.166 40.061-22.187 0-40.166-17.923-40.166-40.061h4.267zM563.019 344.050h-4.267c0-22.109 17.989-40.061 40.148-40.061 22.177 0 40.185 17.951 40.185 40.061 0 22.134-17.995 40.061-40.185 40.061-22.171 0-40.148-17.926-40.148-40.061h4.267z" />
<glyph unicode="&#xe904;" glyph-name="rectangle-speechbubble" d="M955.733 119.467h-477.867l-204.8-153.6c-18.851-14.138-45.595-10.318-59.733 8.533-5.539 7.385-8.533 16.368-8.533 25.6v119.467h-136.533c-37.703 0-68.267 30.564-68.267 68.267v682.667c0 37.703 30.564 68.267 68.267 68.267h887.467c37.703 0 68.267-30.564 68.267-68.267v-682.667c0-37.703-30.564-68.267-68.267-68.267zM356.267 529.067c0 27.099-21.968 49.067-49.092 49.067-27.087-0.014-49.042-21.976-49.042-49.067 0-27.099 21.968-49.067 49.067-49.067s49.067 21.968 49.067 49.067zM561.067 529.067c0 27.099-21.968 49.067-49.092 49.067-27.087-0.014-49.042-21.976-49.042-49.067 0-27.099 21.968-49.067 49.067-49.067s49.067 21.968 49.067 49.067zM765.867 529.067c0 27.099-21.968 49.067-49.092 49.067-27.087-0.014-49.042-21.976-49.042-49.067 0-27.099 21.968-49.067 49.067-49.067s49.067 21.968 49.067 49.067z" />
<glyph unicode="&#xe905;" glyph-name="cards" d="M847.36 650.499c-1.491 0.044-2.988 0.066-4.49 0.066h-650.87v21.435c0 47.128 38.205 85.333 85.333 85.333h484.693c47.128 0 85.333-38.205 85.333-85.333v-21.501zM735.418 821.333h-446.836v0.582c0 47.128 38.205 85.333 85.333 85.333h276.17c47.128 0 85.333-38.205 85.333-85.333v-0.582zM928.203 501.232v-426.667c0-47.128-38.205-85.333-85.333-85.333h-661.537c-47.128 0-85.333 38.205-85.333 85.333v426.667c0 47.128 38.205 85.333 85.333 85.333h661.537c47.128 0 85.333-38.205 85.333-85.333z" />
<glyph unicode="&#xe906;" glyph-name="repeat" d="M819.692 818.117c0 17.673 14.327 32 32 32s32-14.327 32-32v-265.846c0-17.673-14.327-32-32-32h-221.538c-17.673 0-32 14.327-32 32s14.327 32 32 32h189.538v233.846zM871.512 560.266c4.416-17.113-5.877-34.565-22.989-38.981s-34.565 5.877-38.981 22.989c-37.374 144.834-169.443 244.953-318.989 241.82s-277.305-108.697-308.579-254.969c-31.274-146.273 42.147-294.85 177.336-358.863s296.652-26.653 389.985 90.235c11.027 13.811 31.163 16.067 44.973 5.039s16.067-31.163 5.039-44.973c-111.857-140.087-305.365-184.861-467.386-108.144s-250.015 254.783-212.533 430.087c37.482 175.304 190.597 301.819 369.824 305.574s337.507-116.234 382.299-289.814z" />
<glyph unicode="&#xe907;" glyph-name="move-down" d="M554.667 92.447c0-17.673-14.327-32-32-32s-32 14.327-32 32v668.667c0 17.673 14.327 32 32 32s32-14.327 32-32v-668.667zM672.181 258.696c13.577 11.314 33.755 9.48 45.069-4.097s9.48-33.755-4.097-45.069l-170-141.667c-11.867-9.889-29.105-9.889-40.972 0l-170 141.667c-13.577 11.314-15.411 31.492-4.097 45.069s31.492 15.411 45.069 4.097l149.514-124.595 149.514 124.595z" />
<glyph unicode="&#xe908;" glyph-name="move-up" d="M554.667 760.887c0 17.673-14.327 32-32 32s-32-14.327-32-32v-668.667c0-17.673 14.327-32 32-32s32 14.327 32 32v668.667zM672.181 594.637c13.577-11.314 33.755-9.48 45.069 4.097s9.48 33.755-4.097 45.069l-170 141.667c-11.867 9.889-29.105 9.889-40.972 0l-170-141.667c-13.577-11.314-15.411-31.492-4.097-45.069s31.492-15.411 45.069-4.097l149.514 124.595 149.514-124.595z" />
<glyph unicode="&#xe909;" glyph-name="play" d="M256 777.931v-630.384c-0.002-19.014 9.985-36.632 26.301-46.396s36.561-10.24 53.317-1.252l588.322 315.192c17.56 9.414 28.519 27.724 28.519 47.648s-10.959 38.234-28.519 47.648l-588.322 315.192c-16.756 8.987-37.002 8.512-53.317-1.252s-26.302-27.382-26.301-46.396z" />
<glyph unicode="&#xe90a;" glyph-name="pause" d="M288 800h64c35.346 0 64-28.654 64-64v-576c0-35.346-28.654-64-64-64h-64c-35.346 0-64 28.654-64 64v576c0 35.346 28.654 64 64 64zM672 800h64c35.346 0 64-28.654 64-64v-576c0-35.346-28.654-64-64-64h-64c-35.346 0-64 28.654-64 64v576c0 35.346 28.654 64 64 64z" />
<glyph unicode="&#xe90b;" glyph-name="download" d="M480.039 760c0 17.673 14.327 32 32 32s32-14.327 32-32v-469.333c0-17.673-14.327-32-32-32s-32 14.327-32 32v469.333zM512.039 335.922l153.373 153.373c12.497 12.497 32.758 12.497 45.255 0s12.497-32.758 0-45.255l-176-176c-12.497-12.497-32.758-12.497-45.255 0l-176 176c-12.497 12.497-12.497 32.758 0 45.255s32.758 12.497 45.255 0l153.373-153.373zM920.039 290.667c0 17.673 14.327 32 32 32s32-14.327 32-32v-58.667c0-82.475-66.859-149.333-149.333-149.333h-645.333c-82.475 0-149.333 66.859-149.333 149.333v58.667c0 17.673 14.327 32 32 32s32-14.327 32-32v-58.667c0-47.128 38.205-85.333 85.333-85.333h645.333c47.128 0 85.333 38.205 85.333 85.333v58.667z" />
<glyph unicode="&#xe90c;" glyph-name="ear-o" d="M203.82 258.634c13.638-11.241 15.581-31.409 4.34-45.046s-31.409-15.581-45.046-4.34c-108.067 89.074-168.273 223.55-162.736 363.485s76.181 269.234 190.948 349.49c14.483 10.128 34.434 6.598 44.563-7.886s6.598-34.434-7.886-44.563c-98.375-68.793-158.929-179.624-163.675-299.573s46.861-235.218 139.492-311.569zM343.421 362.299c13.299-11.639 14.645-31.855 3.007-45.155s-31.855-14.645-45.155-3.007c-67.64 59.195-107.269 144.104-109.199 233.968s34.018 176.396 99.054 238.44c12.787 12.199 33.043 11.722 45.242-1.065s11.722-33.043-1.065-45.242c-52.031-49.637-80.79-118.865-79.246-190.758s33.249-139.823 87.362-187.18zM1019.214 664.022c3.040-17.41-8.609-33.987-26.019-37.027s-33.987 8.609-37.027 26.019c-19.897 113.949-113.733 200.399-228.927 210.907s-223.124-57.535-263.311-166.003c-40.187-108.468-2.645-230.408 90.504-296.752 61.851-40.313 95.702-112.042 87.366-186.47-12.396-85.132 44.853-164.79 129.507-180.185 46.699-8.513 94.767 4.15 131.212 34.565s57.502 75.442 57.482 122.911c-0.008 17.673 14.313 32.006 31.986 32.014s32.006-14.313 32.014-31.986c0.029-66.456-29.452-129.494-80.474-172.075s-118.318-60.308-183.683-48.393c-118.552 21.56-198.737 133.133-181.511 251.315 5.514 49.342-17.25 97.578-59.929 125.428-117.792 83.854-164.719 236.28-114.486 371.864s185.146 220.639 329.139 207.503c143.993-13.136 261.288-121.198 286.159-263.634zM887.563 604.703c2.185-17.538-10.261-33.526-27.798-35.711s-33.526 10.261-35.711 27.798c-5.827 46.769-48.464 79.959-95.233 74.132s-79.959-48.464-74.132-95.233c2.185-17.538-10.261-33.526-27.798-35.711s-33.526 10.261-35.711 27.798c-10.197 81.844 47.885 156.458 129.729 166.655s156.458-47.885 166.655-129.729z" />
<glyph unicode="&#xe90d;" glyph-name="briefcase" d="M680.889 709.333h163.556c82.206 0 149.333-67.127 149.333-149.333v-35.556h-963.556v35.556c0 82.206 67.127 149.333 149.333 149.333h163.556v46.222c0 60.695 49.527 110.222 110.222 110.222h117.333c60.695 0 110.222-49.527 110.222-110.222v-46.222zM616.889 709.333v46.222c0 25.349-20.873 46.222-46.222 46.222h-117.333c-25.349 0-46.222-20.873-46.222-46.222v-46.222h209.778zM456.889 460.444v-38.044c0-35.346 28.654-64 64-64s64 28.654 64 64v38.044h408.889v-291.556c0-82.206-67.127-149.333-149.333-149.333h-664.889c-82.206 0-149.333 67.127-149.333 149.333v291.556h426.667z" />
<glyph unicode="&#xe90e;" glyph-name="balloon" d="M544 201.244v-164.267c0-2.776 2.202-4.978 4.978-4.978 2.756 0 4.978 2.22 4.978 4.978 0 17.673 14.327 32 32 32s32-14.327 32-32c0-38.114-30.885-68.978-68.978-68.978-38.122 0-68.978 30.856-68.978 68.978v164.267h-41.956c-24.873 0-40.237 27.135-27.44 48.464l39.322 65.536c-41.745 26.907-78.267 54.354-115.566 89.963-71.063 67.843-113.205 139.926-113.205 216.304 0 180.96 122.26 309.333 290.844 309.333s290.844-128.373 290.844-309.333c0-76.377-42.142-148.461-113.205-216.304-37.299-35.608-73.821-63.056-115.566-89.963l39.322-65.536c12.797-21.329-2.566-48.464-27.44-48.464h-41.956zM359.111 640c0 84.46 68.429 152.889 152.889 152.889 17.673 0 32 14.327 32 32s-14.327 32-32 32c-119.806 0-216.889-97.083-216.889-216.889 0-17.673 14.327-32 32-32s32 14.327 32 32z" />
<glyph unicode="&#xe90f;" glyph-name="globe" d="M794.314 550.4c0-187.312-151.901-339.2-339.2-339.2-187.324 0-339.2 151.876-339.2 339.2s151.876 339.2 339.2 339.2c187.299 0 339.2-151.888 339.2-339.2zM403.914 128c0 17.673 14.327 32 32 32s32-14.327 32-32v-57.6c0-17.673-14.327-32-32-32s-32 14.327-32 32v57.6zM442.314 128c0 17.673 14.327 32 32 32s32-14.327 32-32v-57.6c0-17.673-14.327-32-32-32s-32 14.327-32 32v57.6zM703.985 19.211c24.62-18.443 11.576-57.611-19.185-57.611h-459.418c-30.762 0-43.805 39.168-19.185 57.611 71.63 53.658 158.107 83.189 248.932 83.189 90.81 0 177.211-29.52 248.856-83.189zM731.152 826.462c-12.495 12.498-12.493 32.76 0.005 45.255s32.76 12.493 45.255-0.005c177.435-177.476 177.447-465.191-0.003-642.641-177.431-177.431-465.148-177.418-642.605 0.038-12.497 12.497-12.497 32.758 0 45.255s32.758 12.497 45.255 0c152.464-152.464 399.659-152.475 552.096-0.038 152.456 152.456 152.445 399.653-0.003 552.137zM749.26 799.311c-12.497-12.497-32.758-12.497-45.255 0s-12.497 32.758 0 45.255l54.298 54.298c12.497 12.497 32.758 12.497 45.255 0s12.497-32.758 0-45.255l-54.298-54.298zM151.902 201.952c-12.497-12.497-32.758-12.497-45.255 0s-12.497 32.758 0 45.255l54.298 54.298c12.497 12.497 32.758 12.497 45.255 0s12.497-32.758 0-45.255l-54.298-54.298z" />
<glyph unicode="&#xe910;" glyph-name="feather" d="M843.426 826.022c12.496 12.498 32.757 12.499 45.255 0.004s12.499-32.757 0.004-45.255l-755.292-755.417c-12.496-12.498-32.757-12.499-45.255-0.004s-12.499 32.757-0.004 45.255l755.292 755.417zM187.39 126.264c-93.435 93.356-2.527 337.52 185.743 525.725 85.343 85.456 188.313 159.628 267.486 198.818 21.269 10.528 46.196-4.947 46.196-28.679v-230.541c0-8.513-3.392-16.676-9.427-22.681l-444.807-442.686c-12.502-12.442-32.714-12.422-45.191 0.044zM448.849 353.641c-17.673 0-32 14.327-32 32s14.327 32 32 32h299.51c17.673 0 32-14.327 32-32s-14.327-32-32-32h-299.51zM324.131 292.923h330.69c29.25 0 43.169-36.005 21.524-55.68-168.901-153.524-400.886-200.014-488.958-111.942-12.54 12.54-12.49 32.888 0.112 45.366l114.117 112.994c5.992 5.933 14.083 9.261 22.515 9.261zM889.375 827.246c68.955-69.106 56.325-195.087-22.575-332.784-5.702-9.952-16.295-16.091-27.765-16.091h-266.086c-28.496 0-42.779 34.442-22.647 54.608l293.773 294.272c12.503 12.525 32.799 12.522 45.299-0.006z" />
<glyph unicode="&#xe911;" glyph-name="x" d="M254.627 124.064c-12.497-12.497-32.758-12.497-45.255 0s-12.497 32.758 0 45.255l560 560c12.497 12.497 32.758 12.497 45.255 0s12.497-32.758 0-45.255l-560-560zM814.627 169.319c12.497-12.497 12.497-32.758 0-45.255s-32.758-12.497-45.255 0l-560 560c-12.497 12.497-12.497 32.758 0 45.255s32.758 12.497 45.255 0l560-560z" />
<glyph unicode="&#xe912;" glyph-name="noodles" d="M369.421 603.3l-157.163-18.844c-17.547-2.104-33.478 10.415-35.582 27.963s10.415 33.478 27.963 35.582l726.975 87.166c17.547 2.104 33.478-10.415 35.582-27.963s-10.415-33.478-27.963-35.582l-283.031-33.936c25.701-45.467 18.924-87.688-8.809-155.042-1.317-3.198-1.317-3.198-2.608-6.347-8.050-19.675-13.248-35.022-15.447-48.107h251.424c19.247 0 34.139-16.869 31.753-35.967-17.461-139.746-108.537-254.181-231.372-306.364v-75.701c0-17.673-14.327-32-32-32h-270.222c-17.673 0-32 14.327-32 32v75.7c-122.847 52.179-213.91 166.607-231.372 306.364-2.386 19.099 12.506 35.967 31.753 35.967h185.185c2.42 21.758 9.99 45.655 21.737 74.345 1.044 2.545 1.044 2.545 2.078 5.061 20.317 49.429 24.577 71.101 13.12 95.704zM435.157 611.182c11.569-36.983 3.371-71.881-19.662-127.917-1.030-2.505-1.030-2.505-2.044-4.979-8.466-20.678-13.88-36.603-16.091-50.095h51.308c2.413 21.321 9.748 44.635 21.080 72.339 1.336 3.258 1.336 3.258 2.657 6.468 22.936 55.715 26.392 79.629 5.663 109.33l-42.911-5.145zM546.932 624.584c17.656-40.754 9.708-81.092-15.345-141.95-1.314-3.192-1.314-3.192-2.603-6.335-8.048-19.676-13.246-35.024-15.447-48.109h50.933c2.412 21.323 9.747 44.638 21.081 72.341 1.339 3.265 1.339 3.265 2.663 6.481 25.52 61.977 26.927 84.598-1.98 119.294l-2.321 2.712-36.981-4.434zM916.176 928.639c17.008 4.802 34.689-5.094 39.49-22.102s-5.094-34.689-22.102-39.49l-705.859-199.27c-17.008-4.802-34.689 5.094-39.49 22.102s5.094 34.689 22.102 39.49l705.859 199.27z" />
<glyph unicode="&#xe913;" glyph-name="star-pin" d="M488.106-17.631c-2.933 2.118-8.275 6.115-15.681 11.875-12.254 9.531-25.885 20.599-40.55 33.091-41.869 35.666-83.732 75.669-122.854 119.138-112.927 125.474-181.020 254.095-181.020 379.749 0 219.698 158.938 391.111 371.556 391.111 212.591 0 371.556-171.428 371.556-391.111 0-125.654-68.093-254.274-181.020-379.749-39.122-43.469-80.985-83.472-122.854-119.138-14.665-12.493-28.296-23.56-40.55-33.091-7.407-5.761-12.748-9.757-15.681-11.875-6.835-4.936-16.064-4.936-22.899 0zM436.885 643.556h-132.885c-18.29 0-26.57-22.869-12.519-34.579l107.904-89.92-36.134-144.536c-4.588-18.352 16.959-31.876 31.491-19.766l104.814 87.345 104.814-87.345c14.532-12.11 36.079 1.414 31.491 19.766l-36.134 144.536 107.904 89.92c14.051 11.709 5.771 34.579-12.519 34.579h-132.885l-44.254 123.911c-6.18 17.304-30.652 17.304-36.833 0l-44.254-123.911z" />
<glyph unicode="&#xe914;" glyph-name="people" d="M815.982 46.666c1.755 6.819 2.688 13.967 2.688 21.333 0 8.47-0.203 20.673-0.606 34.137-0.791 26.415-2.207 51.525-4.277 74.563-3.635 40.454-8.997 72.069-17.152 96.656-17.686 53.228-61.137 84.58-143.675 118.462-11.909 4.889-36.453 14.127-73.809 27.881-7.611 2.801-14.515 5.335-21.814 9.809 2.797 4.204 5.473 8.617 8.020 13.225 13.060 23.633 21.71 50.961 26.041 81.631 33.514 37.571 40.268 96.352 19.52 142.342 10.835 29.298 15.617 57.027 13.668 85.494-0.659 9.619-2.126 19.087-4.427 28.358-4.127 16.576-11.571 31.42-21.63 44.525 80.702 23.573 199.697 3.596 215.513-59.937 1.402-5.65 2.29-11.427 2.693-17.318 1.684-24.59-4.684-49.012-16.805-75.785-1.821-4.023-3.909-8.438-5.881-12.401 29.887-23.996 27.286-85.459-7.803-102.934-1.797-34.459-9.243-61.915-20.905-83.018-5.253-9.505-10.776-16.805-16.005-22.161v-68.602c32.664-11.894 112.47-40.935 135.319-50.314 63.106-25.905 96.879-48.241 107.233-79.406 6.507-19.618 11.040-47.573 14.155-82.234 2.029-22.579 3.328-46.672 4.049-70.752 0.433-14.442 0.577-25.704 0.577-32.221 0-11.782-9.551-21.333-21.333-21.333h-173.355zM628.656 332.613c63.106-25.905 96.879-48.241 107.233-79.406 6.507-19.618 11.040-47.573 14.155-82.234 2.029-22.579 3.328-46.672 4.049-70.752 0.433-14.442 0.577-25.704 0.577-32.221 0-11.782-9.551-21.333-21.333-21.333h-672c-11.782 0-21.333 9.551-21.333 21.333 0 6.517 0.145 17.779 0.577 32.221 0.721 24.079 2.020 48.172 4.049 70.752 3.115 34.662 7.647 62.616 14.153 82.23 12.955 39.084 59.479 63.066 174.272 104.795 7.89 2.868 15.696 5.683 31.449 11.356 15.332 5.528 26.683 9.659 36.833 13.43v64.351c-9.348 4.716-19.842 11.582-30.313 21.055-27.655 25.021-44.354 60.009-44.354 105.154v74.667c0-1.057-4.25 15.658-5.521 21.037-2.84 12.017-4.822 22.776-5.875 33.261-4.957 49.385 14.369 83.252 61.871 80.832 47.885 74.232 259.43 68.238 280.897-17.993 1.402-5.65 2.29-11.427 2.693-17.318 1.684-24.59-4.684-49.012-16.805-75.785-1.821-4.023-3.909-8.438-5.881-12.401 29.887-23.996 27.286-85.459-7.803-102.934-1.797-34.459-9.243-61.915-20.905-83.018-5.253-9.505-10.776-16.805-16.005-22.161v-68.602c32.664-11.894 112.47-40.935 135.319-50.314z" />
<glyph unicode="&#xe915;" glyph-name="pin-o" d="M654.018 181.069c-13.383-22.81-36.587-38.126-62.822-41.467s-52.536 5.672-71.175 24.366l-291.984 291.984c-18.729 18.673-27.741 44.974-24.4 71.209s18.657 49.438 41.467 62.822c60.035 34.896 129.96 47.743 197.932 36.859l135.979 213.705c13.9 21.831 36.956 36.174 62.682 38.994s51.342-6.187 69.641-24.487l207.759-207.759c18.295-18.307 27.293-43.929 24.462-69.655s-17.186-48.778-39.018-62.664l-213.664-135.974c10.884-67.974-1.969-137.91-36.859-197.934zM267.125 519.077c-0.835-6.559 1.418-13.134 6.134-17.836l292.052-292.052c4.668-4.682 11.243-6.935 17.802-6.1s12.36 4.664 15.64 10.254c30.45 52.387 39.532 114.497 25.354 173.41-3.198 13.29 2.399 27.145 13.931 34.484l232.149 147.738c5.46 3.473 9.048 9.235 9.756 15.667s-1.542 12.837-6.108 17.406l-207.752 207.752c-4.575 4.575-10.979 6.827-17.41 6.122s-12.196-4.291-15.666-9.741l-147.733-232.178c-7.339-11.534-21.194-17.132-34.485-13.933-58.891 14.172-120.978 5.103-173.353-25.321-5.672-3.351-9.478-9.135-10.311-15.672zM373.924 355.214c12.497 12.497 32.758 12.497 45.255 0s12.497-32.758 0-45.255l-284.551-284.551c-12.497-12.497-32.758-12.497-45.255 0s-12.497 32.758 0 45.255l284.551 284.551z" />
<glyph unicode="&#xe916;" glyph-name="pin" d="M654.018 181.069c-13.383-22.81-36.587-38.126-62.822-41.467s-52.536 5.672-71.175 24.366l-291.984 291.984c-18.729 18.673-27.741 44.974-24.4 71.209s18.657 49.438 41.467 62.822c60.035 34.896 129.96 47.743 197.932 36.859l135.979 213.705c13.9 21.831 36.956 36.174 62.682 38.994s51.342-6.187 69.641-24.487l207.759-207.759c18.295-18.307 27.293-43.929 24.462-69.655s-17.186-48.778-39.018-62.664l-213.664-135.974c10.884-67.974-1.969-137.91-36.859-197.934zM373.924 355.214c12.497 12.497 32.758 12.497 45.255 0s12.497-32.758 0-45.255l-284.551-284.551c-12.497-12.497-32.758-12.497-45.255 0s-12.497 32.758 0 45.255l284.551 284.551z" />
<glyph unicode="&#xe917;" glyph-name="table" d="M917.333 309.44v-170.667c0-53.019-42.981-96-96-96h-277.333v266.667h373.333zM917.333 373.44h-373.333v202.667h373.333v-202.667zM106.667 309.44h373.333v-266.667h-277.333c-53.019 0-96 42.981-96 96v170.667zM106.667 373.44v202.667h373.333v-202.667h-373.333zM917.333 640.107h-810.667v117.333c0 53.019 42.981 96 96 96h618.667c53.019 0 96-42.981 96-96v-117.333z" />
<glyph unicode="&#xe918;" glyph-name="table-o" d="M202.667 789.44c-17.673 0-32-14.327-32-32v-618.667c0-17.673 14.327-32 32-32h618.667c17.673 0 32 14.327 32 32v618.667c0 17.673-14.327 32-32 32h-618.667zM202.667 853.44h618.667c53.019 0 96-42.981 96-96v-618.667c0-53.019-42.981-96-96-96h-618.667c-53.019 0-96 42.981-96 96v618.667c0 53.019 42.981 96 96 96zM138.667 576.107c-17.673 0-32 14.327-32 32s14.327 32 32 32h746.667c17.673 0 32-14.327 32-32s-14.327-32-32-32h-746.667zM544 74.773c0-17.673-14.327-32-32-32s-32 14.327-32 32v533.333c0 17.673 14.327 32 32 32s32-14.327 32-32v-533.333zM138.667 309.44c-17.673 0-32 14.327-32 32s14.327 32 32 32h746.667c17.673 0 32-14.327 32-32s-14.327-32-32-32h-746.667z" />
<glyph unicode="&#xe919;" glyph-name="translate-o" d="M758.178 651.202c9.093-15.155 4.179-34.811-10.976-43.904s-34.811-4.179-43.904 10.976l-80 133.333c-9.093 15.155-4.179 34.811 10.976 43.904l133.333 80c15.155 9.093 34.811 4.179 43.904-10.976s4.179-34.811-10.976-43.904l-105.894-63.536 63.536-105.894zM942.067 594.527c6.049-16.606-2.508-34.971-19.114-41.020s-34.971 2.508-41.020 19.114c-32.032 87.927-118.847 143.631-212.124 136.106-17.616-1.421-33.048 11.707-34.47 29.323s11.707 33.048 29.323 34.47c121.983 9.841 235.515-63.005 277.405-177.992zM265.822 244.941c-9.093 15.155-4.179 34.811 10.976 43.904s34.811 4.179 43.904-10.976l80-133.333c9.093-15.155 4.179-34.811-10.976-43.904l-133.333-80c-15.155-9.093-34.811-4.179-43.904 10.976s-4.179 34.811 10.976 43.904l105.894 63.536-63.536 105.894zM81.933 301.651c-6.049 16.606 2.508 34.971 19.114 41.020s34.971-2.508 41.020-19.114c32.032-87.927 118.847-143.631 212.124-136.106 17.616 1.421 33.048-11.707 34.47-29.323s-11.707-33.048-29.323-34.47c-121.983-9.841-235.515 63.005-277.405 177.992zM176 816.071c-17.673 0-32-14.327-32-32v-298.667c0-17.673 14.327-32 32-32h298.667c17.673 0 32 14.327 32 32v298.667c0 17.673-14.327 32-32 32h-298.667zM176 880.071h298.667c53.019 0 96-42.981 96-96v-298.667c0-53.019-42.981-96-96-96h-298.667c-53.019 0-96 42.981-96 96v298.667c0 53.019 42.981 96 96 96zM645.333 442.738c-17.673 0-32 14.327-32 32s14.327 32 32 32h213.333c47.128 0 85.333-38.205 85.333-85.333v-320c0-47.128-38.205-85.333-85.333-85.333h-320c-47.128 0-85.333 38.205-85.333 85.333v213.333c0 17.673 14.327 32 32 32s32-14.327 32-32v-213.333c0-11.782 9.551-21.333 21.333-21.333h320c11.782 0 21.333 9.551 21.333 21.333v320c0 11.782-9.551 21.333-21.333 21.333h-213.333zM677.333 154.738c0-17.673-14.327-32-32-32s-32 14.327-32 32v160c0 47.128 38.205 85.333 85.333 85.333s85.333-38.205 85.333-85.333v-160c0-17.673-14.327-32-32-32s-32 14.327-32 32v160c0 11.782-9.551 21.333-21.333 21.333s-21.333-9.551-21.333-21.333v-160zM645.333 176.071c-17.673 0-32 14.327-32 32s14.327 32 32 32h106.667c17.673 0 32-14.327 32-32s-14.327-32-32-32h-106.667zM293.333 741.404c0 17.673 14.327 32 32 32s32-14.327 32-32v-53.333c0-17.673-14.327-32-32-32s-32 14.327-32 32v53.333zM218.667 656.071c-17.673 0-32 14.327-32 32s14.327 32 32 32h213.333c17.673 0 32-14.327 32-32s-14.327-32-32-32h-213.333zM348.309 698.19c5.589 16.766 23.711 25.827 40.477 20.239s25.827-23.711 20.239-40.477c-1.975-5.924-5.669-15.621-11.116-27.877-9.023-20.301-19.856-40.613-32.616-59.754-38.658-57.988-87.008-94.25-146.626-94.25-17.673 0-32 14.327-32 32s14.327 32 32 32c33.715 0 65.366 23.738 93.374 65.75 10.573 15.859 19.74 33.047 27.384 50.246 4.553 10.244 7.526 18.047 8.884 22.123zM298.717 571.907c-9.841 14.68-5.917 34.558 8.763 44.398s34.558 5.917 44.398-8.763c18.584-27.724 48.958-45.28 82.258-47.545 17.632-1.199 30.954-16.465 29.755-34.098s-16.465-30.954-34.098-29.755c-53.062 3.609-101.462 31.585-131.076 75.762z" />
<glyph unicode="&#xe91a;" glyph-name="translate" d="M758.178 651.202c9.093-15.155 4.179-34.811-10.976-43.904s-34.811-4.179-43.904 10.976l-80 133.333c-9.093 15.155-4.179 34.811 10.976 43.904l133.333 80c15.155 9.093 34.811 4.179 43.904-10.976s4.179-34.811-10.976-43.904l-105.894-63.536 63.536-105.894zM942.067 594.527c6.049-16.606-2.508-34.971-19.114-41.020s-34.971 2.508-41.020 19.114c-32.032 87.927-118.847 143.631-212.124 136.106-17.616-1.421-33.048 11.707-34.47 29.323s11.707 33.048 29.323 34.47c121.983 9.841 235.515-63.005 277.405-177.992zM329.359 139.047l-63.536 105.894c-9.093 15.155-4.179 34.811 10.976 43.904s34.811 4.179 43.904-10.976l80-133.333c9.093-15.155 4.179-34.811-10.976-43.904l-133.333-80c-15.155-9.093-34.811-4.179-43.904 10.976s-4.179 34.811 10.976 43.904l105.894 63.536zM81.933 301.651c-6.049 16.606 2.508 34.971 19.114 41.020s34.971-2.508 41.020-19.114c32.032-87.927 118.847-143.631 212.124-136.106 17.616 1.421 33.048-11.707 34.47-29.323s-11.707-33.048-29.323-34.47c-121.983-9.841-235.515 63.005-277.405 177.992zM365.661 590.875c12.601 18.978 23.312 39.095 32.248 59.2 0.922 2.074 1.793 4.075 2.615 5.996h31.476c17.673 0 32 14.327 32 32s-14.327 32-32 32h-52.595c-0.496 0.012-0.991 0.012-1.485 0h-20.586v21.333c0 17.673-14.327 32-32 32s-32-14.327-32-32v-21.333h-74.667c-17.673 0-32-14.327-32-32s14.327-32 32-32h111.149c-5.382-10.379-11.316-20.562-17.775-30.25-3.414-5.121-6.882-9.971-10.402-14.539-1.054-1.155-2.013-2.376-2.873-3.652-24.591-30.607-51.608-47.559-80.1-47.559-17.673 0-32-14.327-32-32s14.327-32 32-32c40.37 0 75.574 16.627 106.1 45.369 28.521-26.38 65.479-42.605 105.026-45.295 17.632-1.199 32.899 12.122 34.098 29.755s-12.122 32.899-29.755 34.098c-26.021 1.77-50.256 12.877-68.475 30.877zM176 880.071h298.667c53.019 0 96-42.981 96-96v-298.667c0-53.019-42.981-96-96-96h-298.667c-53.019 0-96 42.981-96 96v298.667c0 53.019 42.981 96 96 96zM453.333 325.404h21.333c88.366 0 160 71.634 160 160v21.333h224c47.128 0 85.333-38.205 85.333-85.333v-320c0-47.128-38.205-85.333-85.333-85.333h-320c-47.128 0-85.333 38.205-85.333 85.333v224zM720 176.071v-21.333c0-17.673 14.327-32 32-32s32 14.327 32 32v160c0 47.128-38.205 85.333-85.333 85.333s-85.333-38.205-85.333-85.333v-160c0-17.673 14.327-32 32-32s32 14.327 32 32v21.333h42.667zM720 240.071h-42.667v74.667c0 11.782 9.551 21.333 21.333 21.333s21.333-9.551 21.333-21.333v-74.667z" />
<glyph unicode="&#xe91b;" glyph-name="sweaty-face-o" d="M741.382 334.222c7.855 15.832 27.056 22.298 42.888 14.444s22.298-27.056 14.444-42.888c-54.038-108.918-165.134-177.801-286.72-177.778-17.673 0.003-31.997 14.333-31.994 32.006s14.333 31.997 32.006 31.994c97.269-0.019 186.145 55.088 229.376 142.222zM400 576c0-26.51-21.49-48-48-48s-48 21.49-48 48c0 26.503 21.48 47.99 47.981 48 26.529 0 48.019-21.49 48.019-48zM959.642 465.776c-0.716 17.659 13.019 32.554 30.678 33.27s32.554-13.019 33.27-30.678c0.274-6.748 0.41-13.537 0.41-20.394-0.179-226.298-149.016-425.589-365.952-490.006s-450.418 21.35-574.071 210.878c-123.653 189.527-108.092 437.777 38.26 610.379s388.717 228.542 595.911 137.54c16.181-7.107 23.537-25.986 16.43-42.167s-25.986-23.537-42.167-16.43c-181.273 79.617-393.317 30.677-521.36-120.333s-141.657-368.201-33.474-534.018c108.183-165.817 312.456-240.854 502.252-184.496s320.014 230.717 320.17 428.679c0 5.969-0.119 11.894-0.358 17.776zM876.366 828.619c-5.815-11.137-11.217-21.927-16.125-32.257-17.989-37.861-28.241-67.674-28.282-83.3-1.925-38.325 27.483-71.001 62.282-73.11 38.316 2.109 67.724 34.784 65.799 73.11l-0.040 1.605c0 14.021-10.253 43.834-28.241 81.695-4.908 10.33-10.31 21.12-16.125 32.257-6.313 12.092-12.918 24.228-19.634 36.17-6.716-11.942-13.32-24.078-19.634-36.17zM894.242 576.048c-73.489 4.044-129.894 66.716-126.242 138.618 0 26.707 12.424 62.836 34.435 109.161 5.271 11.093 11.029 22.594 17.199 34.412 10.757 20.604 22.249 41.204 33.74 60.862 6.907 11.815 12.305 20.735 15.45 25.794 12.521 20.139 41.831 20.139 54.352 0 3.146-5.059 8.544-13.979 15.45-25.794 11.491-19.658 22.983-40.258 33.74-60.862 6.17-11.818 11.928-23.319 17.199-34.412 21.78-45.84 34.173-81.696 34.43-108.319 3.265-73.177-53.015-135.43-129.754-139.46zM720 576c0-26.51-21.49-48-48-48s-48 21.49-48 48c0 26.503 21.48 47.99 47.981 48 26.529 0 48.019-21.49 48.019-48z" />
<glyph unicode="&#xe91c;" glyph-name="star-o" d="M512.808 800.655l-101.958-219.434c-10.494-22.585-33.137-37.032-58.041-37.032l-186.286 0.049 166.282-163.915c18.854-18.586 24.319-46.862 13.746-71.135l-92.433-212.196 227.328 127.734c19.467 10.938 43.227 10.94 62.695 0.004l227.401-127.743-92.501 212.419c-10.569 24.272-5.104 52.545 13.748 71.13l166.117 163.653h-186.405c-24.931 0-47.592 14.477-58.071 37.098l-101.623 219.368zM148.094 562.406l0.181-0.179c-0.061 0.076-0.122 0.136-0.181 0.179zM233.507 85.411l0.119 0.067c-0.040-0.022-0.080-0.044-0.119-0.067zM792.813 85.038c-0.056 0.033-0.113 0.064-0.17 0.096l0.17-0.096zM879.836 564.807c-0.295-0.263-0.575-0.539-0.838-0.826l0.838 0.826zM563.238 844.052l109.264-235.862h213.129c22.022 0.864 42.215-12.191 50.466-32.628s2.783-43.852-13.666-58.52l-184.712-182.083 102.586-235.578c9.175-22.102 3.246-47.593-14.741-63.378s-44.032-18.353-64.756-6.386l-248.011 139.315-247.94-139.315c-20.724-11.967-46.769-9.399-64.756 6.386s-23.916 41.276-14.741 63.378l102.515 235.365-184.712 182.083c-16.664 14.565-22.319 38.064-14.104 58.615s28.507 33.679 50.62 32.746h213.129l109.69 236.076c9.841 18.732 29.274 30.447 50.434 30.402s40.543-11.841 50.305-30.615z" />
<glyph unicode="&#xe91d;" glyph-name="star" d="M563.238 844.052l109.264-235.862h213.129c22.022 0.864 42.215-12.191 50.466-32.628s2.783-43.852-13.666-58.52l-184.712-182.083 102.586-235.578c9.175-22.102 3.246-47.593-14.741-63.378s-44.032-18.353-64.756-6.386l-248.011 139.315-247.94-139.315c-20.724-11.967-46.769-9.399-64.756 6.386s-23.916 41.276-14.741 63.378l102.515 235.365-184.712 182.083c-16.664 14.565-22.319 38.064-14.104 58.615s28.507 33.679 50.62 32.746h213.129l109.69 236.076c9.841 18.732 29.274 30.447 50.434 30.402s40.543-11.841 50.305-30.615z" />
<glyph unicode="&#xe91e;" glyph-name="special-char" d="M446.583 149.333h-292.896v517.792h292.896v-71.542h-208.25v-140.958h195.146v-70.833h-195.146v-162.563h208.25v-71.896zM241.167 708.562v8.854c13.458 16.528 27.33 34.944 41.615 55.25s25.559 37.66 33.823 52.063h96.687v-7.437c-12.278-14.403-30.635-32.996-55.073-55.781s-45.038-40.434-61.802-52.948h-55.25zM897.083 345.896c0-63.986-16.41-113.923-49.229-149.813s-78.507-53.833-137.062-53.833c-36.597 0-68.944 8.264-97.042 24.792s-49.701 40.257-64.812 71.187c-15.111 30.931-22.667 66.819-22.667 107.667 0 63.514 16.292 113.097 48.875 148.75s78.507 53.479 137.771 53.479c56.667 0 101.528-18.239 134.583-54.719s49.583-85.649 49.583-147.51zM611.979 345.896c0-90.431 33.409-135.646 100.229-135.646 66.111 0 99.167 45.215 99.167 135.646 0 89.487-33.291 134.229-99.875 134.229-34.945 0-60.267-11.569-75.969-34.708s-23.552-56.312-23.552-99.521zM657.667 588.854v8.854c13.458 16.528 27.33 34.944 41.615 55.25s25.559 37.66 33.823 52.062h96.688v-7.437c-12.278-14.403-30.635-32.996-55.073-55.781s-45.038-40.434-61.802-52.948h-55.25z" />
<glyph unicode="&#xe91f;" glyph-name="rus-char" d="M184.854 64h-93.146l109.083 160.437c-26.445 7.556-47.222 21.073-62.333 40.552s-22.667 43.621-22.667 72.427c0 37.070 13.222 66.052 39.667 86.948s62.569 31.344 108.375 31.344h178.5v-391.708h-83.583v150.875h-78.979l-94.917-150.875zM196.896 336.708c0-20.070 7.615-35.121 22.844-45.156s35.712-15.052 61.448-15.052h77.562v116.167h-90.667c-22.667 0-40.198-4.84-52.594-14.521s-18.594-23.493-18.594-41.437zM806.417 64l-16.646 54.542h-2.833c-18.889-23.847-37.896-40.080-57.021-48.698s-43.68-12.927-73.667-12.927c-38.486 0-68.531 10.389-90.135 31.167s-32.406 50.173-32.406 88.188c0 40.375 14.993 70.833 44.979 91.375s75.673 31.757 137.062 33.646l67.646 2.125v20.896c0 25.028-5.844 43.74-17.531 56.135s-29.809 18.594-54.365 18.594c-20.070 0-39.312-2.951-57.729-8.854s-36.125-12.868-53.125-20.896l-26.917 59.5c21.25 11.097 44.507 19.538 69.771 25.323s49.111 8.677 71.542 8.677c49.82 0 87.42-10.861 112.802-32.583s38.073-55.84 38.073-102.354v-263.854h-59.5zM682.458 120.667c30.222 0 54.483 8.441 72.781 25.323s27.448 40.552 27.448 71.010v34l-50.292-2.125c-39.195-1.417-67.705-7.969-85.531-19.656s-26.74-29.573-26.74-53.656c0-17.472 5.194-30.99 15.583-40.552s25.972-14.344 46.75-14.344zM749.333 557.284c0-17.673-14.327-32-32-32s-32 14.327-32 32v93.383c0 95.729-77.604 173.333-173.333 173.333s-173.333-77.604-173.333-173.333v-91c0-17.673-14.327-32-32-32s-32 14.327-32 32v91c0 131.076 106.258 237.333 237.333 237.333s237.333-106.258 237.333-237.333v-93.383zM769.373 654.578c12.497 12.497 32.758 12.497 45.255 0s12.497-32.758 0-45.255l-74.667-74.667c-12.497-12.497-32.758-12.497-45.255 0l-74.667 74.667c-12.497 12.497-12.497 32.758 0 45.255s32.758 12.497 45.255 0l52.039-52.039 52.039 52.039z" />
<glyph unicode="&#xe920;" glyph-name="questionmark" d="M442.667 549.327c-0.003-17.673-14.333-31.997-32.006-31.994s-31.997 14.333-31.994 32.006c0.013 67.803 50.909 124.8 118.279 132.455s129.757-36.468 144.983-102.539c15.226-66.071-21.558-133.049-85.484-155.65-7.462-2.638-12.449-9.695-12.444-17.626v-8.647c0-17.673-14.327-32-32-32s-32 14.327-32 32v8.63c-0.018 35.049 22.067 66.299 55.111 77.982 33.241 11.753 52.369 46.581 44.451 80.938s-40.359 57.301-75.391 53.32c-35.032-3.981-61.498-33.619-61.505-68.877zM544 296c0-17.673-14.327-32-32-32 10.678 0 19.333 8.656 19.333 19.333s-8.656 19.333-19.333 19.333c-10.678 0-19.333-8.656-19.333-19.333s8.656-19.333 19.333-19.333c-17.673 0-32 14.327-32 32 0 17.667 14.317 31.99 31.982 32 24.697-0.010 44.685-20.004 44.685-44.667 0-24.669-19.998-44.667-44.667-44.667s-44.667 19.998-44.667 44.667c0 24.663 19.988 44.657 44.648 44.667 17.701-0.010 32.018-14.333 32.018-32zM196 796c-17.673 0-32-14.327-32-32v-632c0-17.673 14.327-32 32-32h632c17.673 0 32 14.327 32 32v632c0 17.673-14.327 32-32 32h-632zM196 860h632c53.019 0 96-42.981 96-96v-632c0-53.019-42.981-96-96-96h-632c-53.019 0-96 42.981-96 96v632c0 53.019 42.981 96 96 96z" />
<glyph unicode="&#xe921;" glyph-name="listen-o" d="M574.192 264.946c-14.841-9.595-34.651-5.343-44.247 9.499s-5.343 34.651 9.499 44.247c45.347 29.318 73.269 79.493 73.269 134.481 0 55.504-28.454 106.089-74.495 135.266-14.928 9.46-19.361 29.231-9.901 44.159s29.231 19.361 44.159 9.901c64.372-40.793 104.237-111.665 104.237-189.325 0-76.936-39.123-147.238-102.521-188.226zM664.275 179.613c-14.841-9.595-34.651-5.343-44.247 9.499s-5.343 34.651 9.499 44.247c71.841 46.447 116.098 125.975 116.098 213.104 0 87.947-45.099 168.123-118.041 214.348-14.928 9.46-19.361 29.231-9.901 44.159s29.231 19.361 44.159 9.901c91.272-57.84 147.783-158.304 147.783-268.407 0-109.077-55.458-208.732-145.35-266.849zM750.385 94.28c-14.841-9.595-34.651-5.343-44.247 9.499s-5.343 34.651 9.499 44.247c100.512 64.984 162.447 176.277 162.447 298.189 0 123.057-63.112 235.257-165.165 299.929-14.928 9.46-19.361 29.231-9.901 44.159s29.231 19.361 44.159 9.901c120.384-76.289 194.907-208.775 194.907-353.988 0-143.86-73.135-275.28-191.699-351.934zM147.003 254.069c-49.493 0-92.459 39.378-92.459 90.312v200.697c0 50.057 42.362 91.383 92.467 91.383h88.55c-4.688 0-1.468 1.546 2.923 4.444 8.002 5.283 18.68 13.324 31.825 23.946 22.42 18.117 48.974 41.106 90.402 77.883 2.177 1.933 2.177 1.933 4.354 3.866 5.711 5.074 25.177 22.393 28.052 24.949 15.701 14.048 35.105 14.6 52.813 6.633 19.521-8.738 27.396-26.224 27.396-45.8v-575.299c0-19.328-7.822-36.348-26.958-45.176-6.542-3.002-11.347-4.153-18.686-4.153-12.686 0-23.487 5.107-32.603 12.89-66.517 56.826-143.66 117.708-167.934 133.424h-80.142zM407.574 698.758c-2.186-1.942-2.186-1.942-4.374-3.884-109.657-97.346-140.676-122.412-167.638-122.412h-88.55c-15.109 0-28.467-13.032-28.467-27.383v-200.697c0-14.282 13.126-26.312 28.459-26.312h96.067l6.634-3.232c19.479-9.489 89.468-63.687 159.622-122.425v507.903c-0.672-0.598-1.263-1.123-1.753-1.558z" />
<glyph unicode="&#xe922;" glyph-name="listen" d="M147.003 254.069c-49.493 0-92.459 39.378-92.459 90.312v200.697c0 50.057 42.362 91.383 92.467 91.383h88.55c-4.688 0-1.468 1.546 2.923 4.444 8.002 5.283 18.68 13.324 31.825 23.946 22.42 18.117 48.974 41.106 90.402 77.883 2.177 1.933 2.177 1.933 4.354 3.866 5.711 5.074 25.177 22.393 28.052 24.949 15.701 14.048 35.105 14.6 52.813 6.633 19.521-8.738 27.396-26.224 27.396-45.8v-575.299c0-19.328-7.822-36.348-26.958-45.176-6.542-3.002-11.347-4.153-18.686-4.153-12.686 0-23.487 5.107-32.603 12.89-66.517 56.826-143.66 117.708-167.934 133.424h-80.142zM574.192 264.946c-14.841-9.595-34.651-5.343-44.247 9.499s-5.343 34.651 9.499 44.247c45.347 29.318 73.269 79.493 73.269 134.481 0 55.504-28.454 106.089-74.495 135.266-14.928 9.46-19.361 29.231-9.901 44.159s29.231 19.361 44.159 9.901c64.372-40.793 104.237-111.665 104.237-189.325 0-76.936-39.123-147.238-102.521-188.226zM664.275 179.613c-14.841-9.595-34.651-5.343-44.247 9.499s-5.343 34.651 9.499 44.247c71.841 46.447 116.098 125.975 116.098 213.104 0 87.947-45.099 168.123-118.041 214.348-14.928 9.46-19.361 29.231-9.901 44.159s29.231 19.361 44.159 9.901c91.272-57.84 147.783-158.304 147.783-268.407 0-109.077-55.458-208.732-145.35-266.849zM750.385 94.28c-14.841-9.595-34.651-5.343-44.247 9.499s-5.343 34.651 9.499 44.247c100.512 64.984 162.447 176.277 162.447 298.189 0 123.057-63.112 235.257-165.165 299.929-14.928 9.46-19.361 29.231-9.901 44.159s29.231 19.361 44.159 9.901c120.384-76.289 194.907-208.775 194.907-353.988 0-143.86-73.135-275.28-191.699-351.934z" />
<glyph unicode="&#xe923;" glyph-name="keyboard" d="M200 662.222c-53.019 0-96-42.981-96-96v-213.333c0-53.019 42.981-96 96-96h624c53.019 0 96 42.981 96 96v213.333c0 53.019-42.981 96-96 96h-624zM200 726.222h624c88.366 0 160-71.634 160-160v-213.333c0-88.366-71.634-160-160-160h-624c-88.366 0-160 71.634-160 160v213.333c0 88.366 71.634 160 160 160zM306.667 544.889c-17.673 0-32 14.327-32 32s14.327 32 32 32h58.667c17.673 0 32-14.327 32-32s-14.327-32-32-32h-58.667zM658.667 544.889c-17.673 0-32 14.327-32 32s14.327 32 32 32h58.667c17.673 0 32-14.327 32-32s-14.327-32-32-32h-58.667zM482.667 544.889c-17.673 0-32 14.327-32 32s14.327 32 32 32h58.667c17.673 0 32-14.327 32-32s-14.327-32-32-32h-58.667zM218.667 427.556c-17.673 0-32 14.327-32 32s14.327 32 32 32h58.667c17.673 0 32-14.327 32-32s-14.327-32-32-32h-58.667zM394.667 427.556c-17.673 0-32 14.327-32 32s14.327 32 32 32h58.667c17.673 0 32-14.327 32-32s-14.327-32-32-32h-58.667zM570.667 427.556c-17.673 0-32 14.327-32 32s14.327 32 32 32h58.667c17.673 0 32-14.327 32-32s-14.327-32-32-32h-58.667zM746.667 427.556c-17.673 0-32 14.327-32 32s14.327 32 32 32h58.667c17.673 0 32-14.327 32-32s-14.327-32-32-32h-58.667zM306.667 310.222c-17.673 0-32 14.327-32 32s14.327 32 32 32h410.667c17.673 0 32-14.327 32-32s-14.327-32-32-32h-410.667z" />
<glyph unicode="&#xe924;" glyph-name="hint-o" d="M238.933 458.771c0-16.897-13.686-30.578-30.587-30.578h-107.368c-16.895 0-30.578 13.683-30.578 30.578s13.683 30.578 30.578 30.578h107.378c16.895 0 30.578-13.683 30.578-30.578zM923.022 489.358c16.895 0 30.578-13.683 30.578-30.578s-13.683-30.578-30.578-30.578h-107.378c-16.895 0-30.578 13.683-30.578 30.578s13.683 30.578 30.578 30.578h107.378zM291.087 298.252c9.917-13.661 6.89-32.794-6.769-42.709l-86.882-63.118c-13.665-9.906-32.779-6.876-42.716 6.794-9.901 13.676-6.877 32.78 6.78 42.694l86.867 63.107c13.668 9.937 32.815 6.913 42.719-6.768zM732.907 619.288c-9.907 13.666-6.884 32.768 6.775 42.702l86.87 63.1c13.672 9.93 32.803 6.903 42.721-6.779 9.907-13.666 6.884-32.768-6.775-42.702l-86.866-63.097c-13.664-9.934-32.807-6.905-42.725 6.776zM596.384 718.461c-16.057 5.223-24.845 22.467-19.634 38.528l33.182 102.114c5.209 16.073 22.457 24.871 38.532 19.649 16.068-5.22 24.848-22.455 19.638-38.53l-33.182-102.114c-5.209-16.072-22.468-24.874-38.537-19.647zM355.894 840.234c-5.207 16.065 3.584 33.314 19.652 38.522 16.065 5.207 33.314-3.584 38.519-19.641l33.189-102.136c5.207-16.065-3.584-33.314-19.652-38.522-16.063-5.206-33.31 3.582-38.52 19.646l-33.187 102.131zM862.499 241.913c13.657-9.914 16.681-29.018 6.763-42.717-9.921-13.648-29.049-16.679-42.711-6.762l-86.865 63.106c-13.664 9.919-16.692 29.067-6.779 42.705 9.916 13.679 29.054 16.7 42.722 6.778l86.869-63.109zM284.318 661.99c13.66-9.934 16.685-29.051 6.769-42.71-9.921-13.667-29.062-16.701-42.716-6.77l-86.876 63.104c-13.653 9.929-16.677 29.046-6.762 42.705 9.921 13.667 29.062 16.701 42.716 6.77l86.869-63.099zM277.608 458.771c0 129.26 105.132 234.392 234.392 234.392s234.392-105.132 234.392-234.392c0-82.757-47.727-175.021-108.999-255.569v-43.088c0-69.147-56.246-125.393-125.393-125.393-69.15 0-125.393 56.239-125.393 125.393v43.088c-61.276 80.559-108.999 172.814-108.999 255.569zM447.763 160.114c0-35.405 28.832-64.237 64.237-64.237 35.411 0 64.237 28.828 64.237 64.237v18.47h-128.474v-18.47zM642.479 323.916c27.093 50.058 42.757 96.371 42.757 134.855 0 95.518-77.718 173.236-173.236 173.236-95.514 0-173.236-77.724-173.236-173.236 0-38.548 15.661-84.874 42.751-134.914 17.088-31.564 36.349-60.498 54.182-84.109h152.593c17.82 23.611 37.098 52.589 54.189 84.168z" />
<glyph unicode="&#xe925;" glyph-name="happy-face-o" d="M512-64c-282.77 0-512 229.23-512 512s229.23 512 512 512c282.77 0 512-229.23 512-512s-229.23-512-512-512zM512 0c247.424 0 448 200.576 448 448s-200.576 448-448 448c-247.424 0-448-200.576-448-448s200.576-448 448-448zM240.379 384h543.241c20.775-0.003 40.256-10.090 52.249-27.053s15.006-38.693 8.090-58.257c-49.648-140.773-182.688-234.923-331.959-234.923s-282.311 94.15-331.951 234.9c-6.925 19.587-3.912 41.316 8.081 58.28s31.474 27.050 52.249 27.053zM512 127.767c122.131 0 230.982 77.032 271.614 192.233h-543.225c40.63-115.201 149.48-192.233 271.611-192.233zM758.862 586.659c5.887 16.664 24.168 25.4 40.832 19.513s25.4-24.168 19.513-40.832c-18.073-51.157-66.434-85.362-120.69-85.362s-102.617 34.205-120.69 85.362c-5.887 16.664 2.849 34.945 19.513 40.832s34.945-2.849 40.832-19.513c9.036-25.578 33.217-42.681 60.345-42.681s51.308 17.103 60.345 42.681zM385.828 586.659c5.887 16.664 24.168 25.4 40.832 19.513s25.4-24.168 19.513-40.832c-18.073-51.157-66.434-85.362-120.69-85.362s-102.617 34.205-120.69 85.362c-5.887 16.664 2.849 34.945 19.513 40.832s34.945-2.849 40.832-19.513c9.036-25.578 33.217-42.681 60.345-42.681s51.308 17.103 60.345 42.681z" />
<glyph unicode="&#xe926;" glyph-name="grammar-o" d="M566.455 55.197c-32.502-25.214-76.408-25.214-108.909-0.001-80.167 67.868-178.333 110.973-282.741 124.093-42.821 5.642-74.824 42.154-74.805 85.331v378.92c-0.026 25.030 10.803 48.842 29.684 65.275s43.96 23.871 69.18 20.326c110.586-17.073 214.322-64.309 298.773-135.68 8.392-6.512 20.129-6.512 27.484-0.84 85.5 72.261 189.276 119.536 300.345 136.685 24.815 3.484 49.921-3.975 68.808-20.443s29.696-40.324 29.624-65.291v-378.939c0.019-43.191-31.984-79.704-74.989-85.369-104.185-13.114-202.314-56.217-282.455-124.068zM840.734 242.741c10.971 1.445 19.17 10.8 19.165 21.88v379.045c0.019 6.5-2.785 12.688-7.684 16.96s-11.412 6.207-17.414 5.367c-98.998-15.288-191.86-57.591-269.404-123.092-31.481-24.431-75.514-24.431-108.026 0.835-76.491 64.611-169.316 106.878-267.838 122.092-6.43 0.903-12.935-1.027-17.833-5.289s-7.707-10.439-7.7-16.965v-378.967c-0.005-11.065 8.194-20.42 18.975-21.841 116.528-14.643 226.288-62.838 314.844-137.848 8.206-6.357 19.618-6.465 27.934-0.325 89.487 75.548 198.957 123.545 314.982 138.148zM775.125 859.042c17.144 4.293 34.522-6.126 38.814-23.269s-6.126-34.522-23.269-38.814c-82.42-20.636-159.127-59.591-225.274-114.657-31.481-24.431-75.514-24.431-107.864 0.699-65.188 54.329-141.78 93.269-224.086 113.929-17.141 4.303-27.549 21.686-23.246 38.828s21.686 27.549 38.828 23.246c91.632-23.001 176.904-66.354 248.61-126.141 8.392-6.512 20.129-6.512 27.661-0.692 72.68 60.532 158.073 103.897 249.827 126.871zM480 556.629c0 17.673 14.327 32 32 32s32-14.327 32-32v-488.528c0-17.673-14.327-32-32-32s-32 14.327-32 32v488.528z" />
<glyph unicode="&#xe927;" glyph-name="grammar" d="M544 42.377v551.977c0 4.272-0.628 8.375-1.784 12.192 82.080 64.422 179.483 106.738 283.251 122.761 24.815 3.484 49.921-3.975 68.808-20.443s29.696-40.324 29.624-65.291v-378.939c0.019-43.191-31.984-79.704-74.989-85.369-104.185-13.114-202.314-56.217-282.455-124.068-7.029-5.453-14.59-9.726-22.455-12.82zM480 42.377c-7.864 3.094-15.426 7.367-22.454 12.82-80.167 67.868-178.333 110.973-282.741 124.093-42.821 5.642-74.824 42.154-74.805 85.331v378.92c-0.026 25.030 10.803 48.842 29.684 65.275s43.96 23.871 69.18 20.326c103.745-16.017 201.462-58.581 282.883-122.714-1.133-3.784-1.748-7.846-1.748-12.074v-551.977zM775.125 859.042c17.144 4.293 34.522-6.126 38.814-23.269s-6.126-34.522-23.269-38.814c-82.42-20.636-159.127-59.591-225.274-114.657-31.481-24.431-75.514-24.431-107.864 0.699-65.188 54.329-141.78 93.269-224.086 113.929-17.141 4.303-27.549 21.686-23.246 38.828s21.686 27.549 38.828 23.246c91.632-23.001 176.904-66.354 248.61-126.141 8.392-6.512 20.129-6.512 27.661-0.692 72.68 60.532 158.073 103.897 249.827 126.871z" />
<glyph unicode="&#xe928;" glyph-name="check-circle" d="M512-31.957c-265.097 0-480 214.903-480 480s214.903 480 480 480c265.097 0 480-214.903 480-480s-214.903-480-480-480zM229.842 377.387l104.533-148.352c13.364-19.979 36.269-32.652 61.059-33.392s48.41 10.542 63.413 30.291l334.259 422.896c10.959 13.865 8.603 33.989-5.262 44.948s-33.989 8.603-44.948-5.262l-334.635-423.381c-2.87-3.768-6.795-5.643-10.915-5.52s-7.927 2.229-10.22 5.655l-104.966 148.982c-10.18 14.447-30.144 17.906-44.59 7.726s-17.906-30.144-7.726-44.59z" />
<glyph unicode="&#xe929;" glyph-name="listen-repeat-o" d="M920.444 411.281v67.999c0 17.673 14.327 32 32 32s32-14.327 32-32v-184c0-17.673-14.327-32-32-32h-7.049c-0.469-0.010-0.937-0.010-1.403 0h-144.882c-17.673 0-32 14.327-32 32s14.327 32 32 32h99.924c-35.816 73.725-111.863 121.757-196.34 119.987-98.936-2.073-183.459-71.911-204.149-168.682s27.883-195.066 117.322-237.415c89.438-42.349 196.258-17.633 258.005 59.697 11.027 13.811 31.163 16.067 44.973 5.039s16.067-31.163 5.039-44.973c-80.271-100.53-219.137-132.661-335.407-77.606s-179.416 182.838-152.518 308.64c26.898 125.802 136.777 216.592 265.394 219.287 86.603 1.815 166.391-36.632 219.090-99.971zM651.628 616.513c0-17.673-14.327-32-32-32s-32 14.327-32 32c0 52.73-27.031 100.784-70.772 128.503-14.928 9.46-19.361 29.231-9.901 44.159s29.231 19.361 44.159 9.901c62.071-39.336 100.514-107.677 100.514-182.563zM779.002 610.082c0-17.673-14.327-32-32-32s-32 14.327-32 32c0 83.821-42.982 160.234-112.503 204.29-14.928 9.46-19.361 29.231-9.901 44.159s29.231 19.361 44.159 9.901c87.851-55.672 142.245-152.372 142.245-258.349zM905.941 609.844c0-17.673-14.327-32-32-32s-32 14.327-32 32c0 117.468-60.245 224.57-157.664 286.306-14.928 9.46-19.361 29.231-9.901 44.159s29.231 19.361 44.159 9.901c115.75-73.352 187.406-200.741 187.406-340.365zM142.656 424.372c-48.142 0-89.94 38.307-89.94 87.882v192.335c0 48.716 41.201 88.909 89.948 88.909h84.861c-4.852 0-1.918 1.408 2.066 4.038 7.627 5.035 17.828 12.717 30.396 22.873 21.465 17.345 46.901 39.367 86.588 74.598 2.086 1.852 2.086 1.852 4.172 3.705 5.473 4.862 13.555 12.053 26.88 23.907 15.497 13.865 34.643 14.41 52.047 6.58 19.274-8.628 27.043-25.878 27.043-45.109v-415.615c0-17.673-14.327-32-32-32s-32 14.327-32 32v381.915c-1.575-1.399-1.753-1.558-3.653-3.244-105.911-94.021-135.15-117.647-161.538-117.647h-84.861c-13.75 0-25.948-11.899-25.948-24.909v-192.335c0-12.923 11.958-23.882 25.94-23.882h84.992c4.856 0 9.648-1.105 14.014-3.232 14.902-7.259 55.503-37.798 108.2-80.445 13.738-11.118 15.862-31.268 4.744-45.006s-31.268-15.862-45.006-4.744c-40.723 32.957-76.102 59.895-90.595 69.426h-76.349z" />
<glyph unicode="&#xe92a;" glyph-name="globe-o" d="M730.314 550.4c0 151.964-123.246 275.2-275.2 275.2-151.978 0-275.2-123.222-275.2-275.2s123.222-275.2 275.2-275.2c151.954 0 275.2 123.236 275.2 275.2zM794.314 550.4c0-187.312-151.901-339.2-339.2-339.2-187.324 0-339.2 151.876-339.2 339.2s151.876 339.2 339.2 339.2c187.299 0 339.2-151.888 339.2-339.2zM403.914 128c0 17.673 14.327 32 32 32s32-14.327 32-32v-57.6c0-17.673-14.327-32-32-32s-32 14.327-32 32v57.6zM442.314 128c0 17.673 14.327 32 32 32s32-14.327 32-32v-57.6c0-17.673-14.327-32-32-32s-32 14.327-32 32v57.6zM703.985 19.211c24.62-18.443 11.576-57.611-19.185-57.611h-459.418c-30.762 0-43.805 39.168-19.185 57.611 71.63 53.658 158.107 83.189 248.932 83.189 90.81 0 177.211-29.52 248.856-83.189zM455.13 38.4c-32.169 0-63.678-4.375-93.896-12.8h187.763c-30.205 8.426-61.702 12.8-93.868 12.8zM731.152 826.462c-12.495 12.498-12.493 32.76 0.005 45.255s32.76 12.493 45.255-0.005c177.435-177.476 177.447-465.191-0.003-642.641-177.431-177.431-465.148-177.418-642.605 0.038-12.497 12.497-12.497 32.758 0 45.255s32.758 12.497 45.255 0c152.464-152.464 399.659-152.475 552.096-0.038 152.456 152.456 152.445 399.653-0.003 552.137zM749.26 799.311c-12.497-12.497-32.758-12.497-45.255 0s-12.497 32.758 0 45.255l54.298 54.298c12.497 12.497 32.758 12.497 45.255 0s12.497-32.758 0-45.255l-54.298-54.298zM151.902 201.952c-12.497-12.497-32.758-12.497-45.255 0s-12.497 32.758 0 45.255l54.298 54.298c12.497 12.497 32.758 12.497 45.255 0s12.497-32.758 0-45.255l-54.298-54.298z" />
<glyph unicode="&#xe92b;" glyph-name="family" d="M281.6 597.333c47.104 0 85.333 38.187 85.333 85.333 0 47.104-38.229 85.333-85.333 85.333-47.147 0-85.333-38.229-85.333-85.333 0-47.147 38.187-85.333 85.333-85.333v0zM249.6 565.333v-181.333c0-17.673 14.327-32 32-32s32 14.327 32 32v181.333h117.333c17.673 0 32-14.327 32-32 0-77.749-12.056-141.274-33.869-202.269-3.728-10.425-7.58-20.376-12.242-31.83-1.492-3.666-8.529-20.683-10.195-24.831-5.546-13.808-7.694-21.108-7.694-23.993v-229.077c0-17.673-14.327-32-32-32h-170.667c-17.673 0-32 14.327-32 32v229.077c0 2.885-2.147 10.185-7.694 23.993-1.666 4.148-8.703 21.165-10.195 24.831-4.662 11.454-8.514 21.405-12.242 31.83-21.812 60.995-33.869 124.52-33.869 202.269 0 17.673 14.327 32 32 32h117.333zM791.558 600.027c21.042 21.206 34.042 50.404 34.042 82.64 0 64.777-52.556 117.333-117.333 117.333-64.808 0-117.333-52.544-117.333-117.333 0-32.24 12.991-61.435 34.026-82.639-50.581-29.423-91.096-85.454-118.962-157.139-0.267 1.665-0.406 3.372-0.406 5.112v256c0 111.924 90.743 202.667 202.667 202.667s202.667-90.743 202.667-202.667v-256c0-1.739-0.139-3.445-0.406-5.109-27.87 71.679-68.387 127.712-118.962 157.135zM558.933 159.987h74.667v-138.667c0-17.673 14.327-32 32-32h85.333c17.673 0 32 14.327 32 32v138.667h74.667c17.673 0 32 14.327 32 32 0 191.416-76.002 366.848-181.333 366.848-105.362 0-181.333-175.397-181.333-366.848 0-17.673 14.327-32 32-32zM708.267 629.333c29.448 0 53.333 23.877 53.333 53.333 0 29.431-23.902 53.333-53.333 53.333-29.456 0-53.333-23.885-53.333-53.333 0-29.474 23.86-53.333 53.333-53.333z" />
<glyph unicode="&#xe92c;" glyph-name="family-o" d="M281.6 565.333c-64.82 0-117.333 52.514-117.333 117.333 0 64.789 52.526 117.333 117.333 117.333 64.777 0 117.333-52.556 117.333-117.333 0-64.808-52.544-117.333-117.333-117.333zM281.6 629.333c29.448 0 53.333 23.877 53.333 53.333 0 29.431-23.902 53.333-53.333 53.333-29.456 0-53.333-23.885-53.333-53.333 0-29.474 23.86-53.333 53.333-53.333zM430.933 565.333c17.673 0 32-14.327 32-32 0-77.749-12.056-141.274-33.869-202.269-3.728-10.425-7.58-20.376-12.242-31.83-1.492-3.666-8.529-20.683-10.195-24.831-5.546-13.808-7.694-21.108-7.694-23.993v-229.077c0-17.673-14.327-32-32-32h-170.667c-17.673 0-32 14.327-32 32v229.077c0 2.885-2.147 10.185-7.694 23.993-1.666 4.148-8.703 21.165-10.195 24.831-4.662 11.454-8.514 21.405-12.242 31.83-21.812 60.995-33.869 124.52-33.869 202.269 0 17.673 14.327 32 32 32h298.667zM165.049 501.333c2.788-55.658 12.957-102.88 29.349-148.718 3.382-9.457 6.916-18.587 11.258-29.254 1.377-3.382 8.491-20.587 10.305-25.102 8.57-21.334 12.306-34.036 12.306-47.849v-197.077h106.667v197.077c0 13.813 3.736 26.514 12.306 47.849 1.813 4.514 8.928 21.72 10.305 25.102 4.342 10.667 7.876 19.797 11.258 29.254 16.392 45.838 26.561 93.060 29.349 148.718h-233.103zM708.267 565.333c-64.82 0-117.333 52.514-117.333 117.333 0 64.789 52.526 117.333 117.333 117.333 64.777 0 117.333-52.556 117.333-117.333 0-64.808-52.544-117.333-117.333-117.333zM708.267 629.333c29.448 0 53.333 23.877 53.333 53.333 0 29.431-23.902 53.333-53.333 53.333-29.456 0-53.333-23.885-53.333-53.333 0-29.474 23.86-53.333 53.333-53.333zM558.933 159.987c-17.673 0-32 14.327-32 32 0 191.451 75.972 366.848 181.333 366.848 105.332 0 181.333-175.432 181.333-366.848 0-17.673-14.327-32-32-32h-74.667v-138.667c0-17.673-14.327-32-32-32h-85.333c-17.673 0-32 14.327-32 32v138.667h-74.667zM708.267 494.835c-51.648 0-109.023-124.437-116.512-270.848h73.846c17.673 0 32-14.327 32-32v-138.667h21.333v138.667c0 17.673 14.327 32 32 32h73.845c-7.493 146.385-64.889 270.848-116.512 270.848zM614.477 480v-64h-76.885c-17.673 0-32 14.327-32 32v256c0 111.924 90.743 202.667 202.667 202.667s202.667-90.743 202.667-202.667v-256c0-17.673-14.327-32-32-32h-76.885v64h44.885v224c0 76.578-62.089 138.667-138.667 138.667s-138.667-62.089-138.667-138.667v-224h44.885zM249.6 533.333c0 17.673 14.327 32 32 32s32-14.327 32-32v-149.333c0-17.673-14.327-32-32-32s-32 14.327-32 32v149.333z" />
<glyph unicode="&#xe92d;" glyph-name="briefcase-o" d="M929.778 560c0 46.86-38.473 85.333-85.333 85.333h-664.889c-46.86 0-85.333-38.473-85.333-85.333v-391.111c0-46.86 38.473-85.333 85.333-85.333h664.889c46.86 0 85.333 38.473 85.333 85.333v391.111zM993.778 560v-391.111c0-82.206-67.127-149.333-149.333-149.333h-664.889c-82.206 0-149.333 67.127-149.333 149.333v391.111c0 82.206 67.127 149.333 149.333 149.333h664.889c82.206 0 149.333-67.127 149.333-149.333zM456.889 460.8h128v-38.4c0-35.346-28.654-64-64-64s-64 28.654-64 64v38.4zM407.111 677.333c0-17.673-14.327-32-32-32s-32 14.327-32 32v78.222c0 60.695 49.527 110.222 110.222 110.222h117.333c60.695 0 110.222-49.527 110.222-110.222v-78.222c0-17.673-14.327-32-32-32s-32 14.327-32 32v78.222c0 25.349-20.873 46.222-46.222 46.222h-117.333c-25.349 0-46.222-20.873-46.222-46.222v-78.222zM42.667 462.933v64h944.76v-64z" />
<glyph unicode="&#xe92e;" glyph-name="book-o" d="M772.444 718.776l-499.556-57.443c-62.826 0-113.778 50.934-113.778 113.778 0 68.396 29.614 92.518 123.862 108.891-0.299-0.052 282.921 39.412 434.206 65.746 17.411 3.031 33.983-8.627 37.014-26.038s-8.627-33.983-26.038-37.014c-152.706-26.582-435.941-66.048-434.227-65.75-67.101-11.657-70.816-14.683-70.816-45.835 0-27.493 22.293-49.778 46.11-49.989l531.556 61.333c19 2.192 35.668-12.663 35.668-31.789v-715.556c0-16.138-12.017-29.751-28.031-31.753l-494.636-61.58c-19.858 0-47.402 4.591-75.644 18.712-48.816 24.408-79.022 69.718-79.022 135.955v511.111c0 17.673 14.327 32 32 32s32-14.327 32-32v-511.111c0-41.096 15.793-64.786 43.644-78.712 10.313-5.156 21.688-8.569 33.117-10.474 6.753-1.126 11.734-1.481 9.937-1.728l462.636 57.829v651.416zM297.472 743.339c-17.525-2.286-33.584 10.068-35.87 27.592s10.068 33.584 27.592 35.87l470.222 61.333c17.525 2.286 33.584-10.068 35.87-27.592s-10.068-33.584-27.592-35.87l-470.222-61.333z" />
<glyph unicode="&#xe92f;" glyph-name="book" d="M171.959 804.948c6.612 52.124 39.689 72.699 124.187 87.378-0.336-0.058 289.166 40.281 443.836 67.204 17.056 2.969 33.289-8.451 36.258-25.507s-8.451-33.289-25.507-36.258c-156.063-27.166-445.578-67.507-443.857-67.208-69.167-12.016-73.516-15.558-73.516-48.195 0-28.855 23.398-52.245 48.652-52.451l543.344 62.694c18.612 2.148 34.94-12.404 34.94-31.14v-731.425c0-15.809-11.772-29.144-27.459-31.105l-505.437-62.936c-20.105 0-48.067 4.66-76.712 18.983-49.452 24.726-80.022 70.58-80.022 137.751v702.425c0 3.568 0.457 6.831 1.292 9.789zM310.557 751.238c-17.167-2.239-32.899 9.862-35.138 27.029s9.862 32.899 27.029 35.138l480.651 62.694c17.167 2.239 32.899-9.862 35.138-27.029s-9.862-32.899-27.029-35.138l-480.651-62.694z" />
<glyph unicode="&#xe930;" glyph-name="balloon-o" d="M494.563 265.244h34.875l-17.437 29.062-17.437-29.062zM539.4 369.038c41.432 26.705 73.89 51.763 106.045 82.461 62.927 60.075 93.399 116.644 93.399 170.012 0 145.831-93.91 245.333-226.844 245.333s-226.844-99.502-226.844-245.333c0-53.369 30.472-109.937 93.399-170.012 32.155-30.698 64.613-55.755 106.045-82.461l27.4-17.661 27.4 17.661zM334.361 405.207c-71.063 67.843-113.205 139.926-113.205 216.304 0 180.96 122.26 309.333 290.844 309.333s290.844-128.373 290.844-309.333c0-76.377-42.142-148.461-113.205-216.304-37.299-35.608-73.821-63.056-115.566-89.963l39.322-65.536c12.797-21.329-2.566-48.464-27.44-48.464h-147.911c-24.873 0-40.237 27.135-27.44 48.464l39.322 65.536c-41.745 26.907-78.267 54.354-115.566 89.963zM384 615.111c0-17.673-14.327-32-32-32s-32 14.327-32 32c0 119.806 97.083 216.889 216.889 216.889 17.673 0 32-14.327 32-32s-14.327-32-32-32c-84.46 0-152.889-68.429-152.889-152.889zM480 233.244c0 17.673 14.327 32 32 32s32-14.327 32-32v-196.267c0-2.776 2.202-4.978 4.978-4.978 2.756 0 4.978 2.22 4.978 4.978 0 17.673 14.327 32 32 32s32-14.327 32-32c0-38.114-30.885-68.978-68.978-68.978-38.122 0-68.978 30.856-68.978 68.978v196.267z" />
<glyph unicode="&#xe931;" glyph-name="plane-o" d="M320.003 550.873l520.825 226.553c56.761 23.522 121.204-3.179 144.525-59.414 23.307-56.257-3.41-120.699-60.748-144.432l-171.893-64.044-150.807-301.614c-3.096-6.193-8.118-11.214-14.311-14.311l-156.444-78.222c-26.013-13.007-54.485 12.626-44.273 39.858l91.884 245.023-226.037-90.415c-11.885-4.754-25.46-1.968-34.512 7.084l-176 176c-16.008 16.008-10.786 43.122 10.022 52.040l136.889 58.667c8.652 3.708 18.497 3.419 26.916-0.791l103.964-51.982zM331.825 486.223c-8.687-3.779-18.602-3.514-27.075 0.722l-104.059 52.029-79.804-34.202 127.658-127.658 273.742 109.497c25.814 10.326 51.609-14.915 41.847-40.947l-88.721-236.588 74.018 37.009 151.674 303.348c3.623 7.245 9.859 12.847 17.449 15.676l182.629 68.021c23.618 9.785 34.816 36.794 25.046 60.376-9.753 23.517-36.629 34.715-60.164 25.106l-534.241-232.389zM356.516 719.228l192.158-79.526c16.33-6.758 24.089-25.475 17.331-41.805s-25.475-24.089-41.805-17.331l-263.57 109.081c-26.346 10.904-26.352 48.22-0.009 59.132l144.555 59.879c7.829 3.243 16.624 3.248 24.456 0.015l260.363-107.477c16.336-6.743 24.112-25.453 17.369-41.789s-25.453-24.112-41.789-17.369l-248.131 102.428-60.927-25.238z" />
<glyph unicode="&#xe932;" glyph-name="plane" d="M318.581 528.192l-105.813 52.907c-7.771 3.886-16.86 4.153-24.846 0.73l-137.846-59.077c-19.208-8.232-24.028-33.26-9.251-48.037l177.231-177.231c8.355-8.355 20.886-10.927 31.857-6.539l233.265 93.306-94.662-252.431c-9.426-25.137 16.855-48.798 40.868-36.792l157.538 78.769c5.717 2.858 10.352 7.493 13.21 13.21l152.335 304.67 174.086 64.861c56.279 23.296 82.532 86.618 59.63 141.898-22.916 55.258-86.239 81.495-141.984 58.395l-525.618-228.638zM385.118 621.557l-125.219 51.823c-24.32 10.065-24.325 44.511-0.009 54.583l145.566 60.298c7.226 2.993 15.345 2.998 22.575 0.014l174.637-72.090-217.55-94.628z" />
<glyph unicode="&#xe933;" glyph-name="fire" d="M487.747 219.509c32.085 27.904 56.405 62.891 75.605 109.099 4.309-41.6-4.309-83.371-26.539-129.877-0.811-1.749-0.64-3.84 0.512-5.419s3.157-2.389 4.992-2.176c47.701 5.973 114.688 109.269 124.075 174.763 10.368 71.979-4.992 136.32-46.848 196.267 57.472-15.232 137.6-80.683 158.037-179.755 25.429-123.179-41.429-243.584-159.019-286.251-109.952-39.979-220.245 9.515-260.736 61.611 48.939 8.533 92.587 29.312 129.92 61.739zM866.371 439.2c-22.059 80.512-73.515 149.888-152.875 206.208l-6.528 4.608c-42.539 30.123-86.571 61.312-116.523 105.941-36.907 54.997-43.947 108.117-21.504 162.389 1.024 2.475 1.28 4.949 1.536 8.064 0.171 1.664 0.384 3.669 0.725 6.144 0.299 2.091-0.64 4.139-2.389 5.248-1.792 1.195-4.053 1.109-5.803 0-4.907-3.2-9.515-6.187-13.995-9.003-9.344-5.973-17.835-11.392-26.027-17.195-114.56-80.981-174.635-192.171-178.475-330.496-1.493-53.376 2.091-100.821 11.008-145.067 1.28-6.485 2.176-13.013 3.029-19.584l0.128-1.067c-0.811 0.811-1.664 1.621-2.475 2.432-6.101 6.016-12.373 12.16-17.792 18.645-45.525 54.699-50.389 121.899-51.456 186.112-0.043 2.133-1.323 4.053-3.328 4.864-1.963 0.768-4.224 0.299-5.76-1.195-37.632-37.675-65.024-81.237-83.797-133.12-22.016-60.843-24.107-122.496-23.253-174.805 1.579-95.019 34.901-177.365 99.029-244.736 56.363-59.264 126.421-95.531 208.256-107.904 17.835-2.688 35.499-4.011 52.907-4.011 57.685 0 112.768 14.763 164.352 44.117 154.539 88.021 220.075 254.080 171.008 433.408z" />
<glyph unicode="&#xe934;" glyph-name="hamburger" d="M137.6 159.872c-17.673 0-32 14.327-32 32s14.327 32 32 32h748.8c17.673 0 32-14.327 32-32s-14.327-32-32-32h-748.8zM137.6 415.872c-17.673 0-32 14.327-32 32s14.327 32 32 32h748.8c17.673 0 32-14.327 32-32s-14.327-32-32-32h-748.8zM137.6 671.872c-17.673 0-32 14.327-32 32s14.327 32 32 32h748.8c17.673 0 32-14.327 32-32s-14.327-32-32-32h-748.8z" />
<glyph unicode="&#xe935;" glyph-name="google" d="M236.834 772.71c13.824 15.829 32 24.149 52.352 24.149h2.304c57.557-1.749 112.597-65.835 122.709-142.891 5.675-43.221-3.925-83.84-25.6-108.587-13.909-15.829-31.744-24.149-52.992-24.149h-0.939c-56.363 1.707-112.597 68.267-122.667 145.28-5.675 43.051 3.413 81.749 24.832 106.197v0zM156.151 194.449c0 61.184 77.824 114.901 166.4 114.901h2.389c19.285-0.213 38.059-3.072 55.851-8.533 6.059-4.181 11.947-8.192 17.579-11.989 41.045-27.989 68.139-46.421 75.733-76.075 1.749-7.467 2.645-14.933 2.645-22.144 0-76.203-56.875-114.901-169.003-114.901-84.992 0-151.595 52.181-151.595 118.741v0zM484.941 387.089c-31.104 22.016-59.392 54.315-59.904 64.213 0 18.133 1.621 26.752 42.155 58.325 52.48 41.045 81.365 95.061 81.365 152.064 0 51.712-15.787 97.664-42.709 129.877h20.821c4.352 0 8.533 1.408 12.032 3.883l58.197 42.197c7.211 5.163 10.283 14.421 7.509 22.869-2.731 8.405-10.581 14.165-19.499 14.165h-260.267c-28.459 0-57.387-5.035-85.803-14.848-94.933-32.64-161.195-113.493-161.195-196.48 0-117.547 91.008-206.677 212.779-209.451-2.389-9.387-3.584-18.517-3.584-27.52 0-18.133 4.608-35.285 14.080-51.883h-3.371c-116.053 0-220.8-56.96-260.608-141.653-10.368-22.101-15.616-44.331-15.616-66.347 0-21.376 5.504-41.984 16.299-61.355 24.96-44.629 78.635-79.36 151.211-97.664 37.419-9.472 77.653-14.293 119.467-14.293 37.547 0 73.301 4.864 106.411 14.421 103.211 29.952 169.856 105.899 169.856 193.621 0 84.139-26.965 134.443-99.627 185.856v0zM887.467 320c0-7.069-5.731-12.8-12.8-12.8h-85.333c-7.069 0-12.8 5.731-12.8 12.8v115.2h-115.2c-7.069 0-12.8 5.731-12.8 12.8v85.333c0 7.069 5.731 12.8 12.8 12.8h115.2v115.2c0 7.069 5.731 12.8 12.8 12.8h85.333c7.069 0 12.8-5.731 12.8-12.8v-115.2h115.2c7.069 0 12.8-5.731 12.8-12.8v-85.333c0-7.069-5.731-12.8-12.8-12.8h-115.2v-115.2z" />
<glyph unicode="&#xe936;" glyph-name="eye-crossed" d="M140.902 40.916c-12.749-12.239-33.006-11.826-45.245 0.923s-11.826 33.006 0.923 45.245l800 768c12.749 12.239 33.006 11.826 45.245-0.923s11.826-33.006-0.923-45.245l-800-768zM372.973 116.597c-16.878 5.242-26.311 23.173-21.069 40.051s23.173 26.311 40.051 21.069c38.784-12.045 79.196-18.022 120.584-17.722 145.342-2.446 312.965 92.867 437.509 229.933 13.348 14.818 13.348 37.324 0.127 52.002-38.216 41.924-80.554 79.897-126.375 113.343-14.275 10.42-17.4 30.439-6.98 44.713s30.439 17.4 44.713 6.98c49.288-35.978 94.831-76.824 136.067-122.062 35.277-39.164 35.277-98.646-0.093-137.912-135.853-149.512-319.25-253.795-485.269-250.991-47.206-0.352-94.183 6.595-139.266 20.596zM622.682 723.021c17.15-4.268 27.593-21.63 23.326-38.78s-21.63-27.593-38.78-23.326c-31.022 7.72-62.903 11.445-95.759 11.089-144.135 2.396-312.652-92.644-437.388-229.848-13.348-14.818-13.348-37.324-0.15-51.977 32.776-35.88 68.55-68.902 106.933-98.708 13.959-10.839 16.488-30.942 5.648-44.901s-30.942-16.488-44.901-5.648c-41.255 32.035-79.705 67.528-115.084 106.258-35.277 39.164-35.277 98.646 0.099 137.919 136.062 149.663 320.438 253.647 485.015 250.899 37.415 0.42 74.731-3.941 111.041-12.977zM384 416.009c0.005-17.673-14.318-32.004-31.991-32.009s-32.004 14.318-32.009 31.991c-0.014 50.928 20.211 99.774 56.223 135.786s84.858 56.237 135.786 56.223c17.673-0.005 31.996-14.335 31.991-32.009s-14.335-31.996-32.009-31.991c-33.948 0.009-66.509-13.473-90.514-37.478s-37.487-56.565-37.478-90.514zM640 416.034c-0.005 17.673 14.318 32.004 31.991 32.009s32.004-14.318 32.009-31.991c0.014-50.93-20.209-99.78-56.217-135.798s-84.852-56.254-135.783-56.254c-17.673 0-32 14.327-32 32s14.327 32 32 32c33.954 0 66.516 13.49 90.522 37.502s37.487 56.578 37.478 90.532z" />
<glyph unicode="&#xe937;" glyph-name="eye" d="M997.601 516.99c35.277-39.164 35.277-98.646-0.093-137.912-135.853-149.512-319.25-253.795-484.969-250.988-166.806-2.807-350.188 101.495-486.011 251.091-35.277 39.164-35.277 98.646 0.091 137.91 135.837 149.519 320.005 253.428 485.381 250.87 165.352 2.557 349.475-101.305 485.601-250.971zM512.54 703.962c-145.255 2.432-313.798-92.589-438.459-229.805-13.348-14.818-13.348-37.324-0.085-52.049 124.522-137.149 292.12-232.473 438.543-230.027 145.342-2.446 312.965 92.867 437.509 229.933 13.348 14.818 13.348 37.324 0.104 52.028-124.939 137.367-293.453 232.352-437.611 229.92zM640 448.009c0.018 33.963-13.46 66.532-37.466 90.544s-56.572 37.499-90.534 37.49c-70.688 0-127.994-57.301-128-127.989s57.289-127.999 127.977-128.011c70.688-0.013 128.004 57.278 128.023 127.966zM511.966 256.043c-106.032 0.019-191.975 85.985-191.966 192.017s85.968 191.983 191.991 191.983c50.937 0.014 99.791-20.218 135.804-56.241s56.231-84.879 56.205-135.814c-0.031-106.030-86.004-191.963-192.034-191.945z" />
<glyph unicode="&#xe938;" glyph-name="youtube" d="M809.831 782.132c-140.956 9.621-454.901 9.582-595.662 0-152.416-10.404-170.368-102.471-171.502-344.804 1.134-241.902 18.93-334.361 171.502-344.804 140.8-9.582 454.706-9.621 595.662 0 152.416 10.404 170.368 102.471 171.502 344.804-1.134 241.902-18.93 334.361-171.502 344.804zM394.667 280.884v312.889l312.889-156.171-312.889-156.718z" />
<glyph unicode="&#xe939;" glyph-name="twitter" d="M884.615 700.333c22.595-8.143 44.679-6.368 70.927 5.338 5.86 2.613 11.492-4.063 7.929-9.399-15.137-22.668-34.793-39.484-71.457-64.672-2.263-1.555-14.333-9.793-17.713-12.122-3.664-2.526-6.872-4.766-9.856-6.89 0.23-6.171 0.331-12.603 0.331-19.809 0-272.246-211.349-512.068-511.989-512.068-99.082 0-194.002 28.342-275.902 80.838-5.716 3.664-2.544 12.535 4.199 11.745 86.856-10.18 173.481 11.576 244.635 61.981-71.699 8.214-132.316 57.865-154.4 126.711-1.484 4.626 2.525 9.153 7.296 8.241 16.944-3.24 34.2-3.908 51.198-2.034-71.395 25.99-121.104 94.427-121.104 173.078 0 0.789 0 0.789 0.013 1.647 0.012 0.447 0.012 0.447 0.035 0.918 0.249 4.724 5.359 7.555 9.495 5.26 17.298-9.594 36.081-16.131 55.666-19.3-39.944 34.509-63.763 84.948-63.763 139.406 0 32.946 8.703 64.685 24.961 92.627 2.249 3.865 7.668 4.291 10.493 0.824 87.068-106.844 214.207-173.635 353.395-182.907-2.004 10.962-3.018 22.214-3.018 33.644 0 101.652 82.444 184.121 184.121 184.121 50.301 0 97.533-20.358 131.878-55.589 38.008 7.923 74.25 22.062 107.423 41.747 5.061 3.003 11.152-1.841 9.363-7.448-0.041-0.13-6.743-21.608-8.486-26.745-6.795-20.023-13.514-31.194-26.899-42.465-2.642-2.225-5.549-4.439-8.772-6.678z" />
<glyph unicode="&#xe93a;" glyph-name="atom" d="M512 10.837c-18.261 0-46.891 30.251-72.021 97.109-24.704-12.587-46.165-22.485-67.029-31.488 32.725-84.992 79.275-140.459 139.051-140.459 61.44 0 108.885 58.496 141.739 147.285-20.693 8.576-42.539 18.347-67.456 30.677-25.557-71.125-55.381-103.125-74.283-103.125zM311.083 105.387c-132.224-48.597-268.373-49.835-268.373 70.144 0 40.064 18.56 96.299 76.629 174.165 24.789 33.237 53.504 65.92 82.645 95.915 65.323 66.347 138.923 130.133 234.88 196.224-46.208 25.429-96.597 49.792-145.749 67.84-50.347 18.56-94.677 28.843-128.64 28.843-21.675 0-37.803-4.565-43.051-12.288-5.675-8.192-5.888-33.451 18.987-78.635l8.96 0.555c44.672 0 80.981-36.949 80.981-82.475s-36.309-82.389-80.981-82.389c-44.715 0-80.939 36.864-80.939 82.389 0 14.763 3.797 28.587 10.453 40.576-25.173 44.373-34.219 79.36-34.219 106.795 0 64.64 49.237 100.437 119.808 100.437 107.264 0 251.733-70.912 344.832-125.696 94.464 58.155 243.925 134.784 354.304 134.784 80.768 0 119.765-44.971 119.765-102.187 0-40.064-18.603-96.256-76.629-174.080-131.584-176.512-393.216-367.189-593.664-440.917zM947.541 289.067c6.059 11.52 9.387 24.576 9.387 38.485 0 45.568-36.224 82.475-80.939 82.475s-80.939-36.907-80.939-82.475c0-45.483 36.224-82.347 80.939-82.347l11.008 0.725c23.552-43.691 23.211-68.139 17.707-76.245-5.291-7.723-21.376-12.245-43.093-12.245-68.352 0-163.541 40.277-224.853 70.699-20.48-14.592-45.867-31.915-70.699-47.744 82.133-44.203 202.965-97.92 295.552-97.92 69.973 0 119.808 35.413 119.808 100.437 0 27.221-9.003 62.080-33.877 106.155zM399.957 283.989h-0.043l-0.555 0.427c-48.811 34.56-96.939 72.533-141.525 112.256-120.192-122.752-154.069-211.755-138.155-235.691 5.376-8.064 20.992-12.757 42.795-12.757 100.267 0 259.413 86.101 353.579 147.84 115.584 75.733 247.467 184.661 330.069 295.509 64.256 86.101 66.219 131.456 58.283 143.403-5.376 8.107-20.949 12.715-42.795 12.715-83.285 0-210.091-62.251-283.136-104.405 53.888-35.669 104.235-73.344 150.187-111.616-17.408-17.707-35.584-34.944-54.187-51.669-51.029 41.899-107.691 83.029-166.443 119.893-67.456-44.203-135.381-96.171-196.395-151.552 45.867-40.576 100.523-83.157 158.763-122.581-22.272-14.123-44.757-27.605-70.443-41.771zM512 533.333c47.104 0 85.333-38.229 85.333-85.333s-38.229-85.333-85.333-85.333c-47.104 0-85.333 38.229-85.333 85.333s38.229 85.333 85.333 85.333zM437.803 781.995c-24.747 12.16-46.72 22.101-67.456 30.635 32.853 88.832 80.299 147.371 141.653 147.371 59.861 0 106.453-55.552 139.136-140.459-20.907-9.045-42.496-19.072-67.072-31.531-25.045 66.859-53.675 97.067-72.064 97.067-18.816 0-48.597-32-74.197-103.083z" />
<glyph unicode="&#xe93b;" glyph-name="facebook" d="M590.591 610.297h147.686l6.366-7.064-15.055-144.41-6.366-5.736h-132.631v-426.831l-6.4-6.4h-180.513l-6.4 6.4v426.831h-101.908l-6.4 6.4v144.41l6.4 6.4h101.908v71.040c0 104.841 52.752 180.414 175.054 180.414l156.288-0.469 6.381-6.4v-142.316l-6.4-6.4h-107.874c-17.919 0-30.136-9.995-30.136-33.493v-62.375z" />
<glyph unicode="&#xe93c;" glyph-name="purse" d="M512 557.867c243.327 0 440.533-197.206 440.533-440.533 0-6.186-5.014-11.2-11.2-11.2h-858.667c-6.186 0-11.2 5.014-11.2 11.2 0 243.327 197.206 440.533 440.533 440.533zM903.255 511.611c11.567-13.362 10.113-33.571-3.249-45.138s-33.571-10.113-45.138 3.249c-85.726 99.025-209.541 156.944-342.868 156.944s-257.142-57.92-342.868-156.944c-11.567-13.362-31.776-14.817-45.138-3.249s-14.817 31.776-3.249 45.138c97.749 112.913 239.142 179.056 391.255 179.056s293.506-66.143 391.255-179.056zM461.333 714.667c0 13.239-10.761 24-24 24s-24-10.761-24-24c0-13.239 10.761-24 24-24s24 10.761 24 24zM525.333 714.667c0-48.585-39.415-88-88-88s-88 39.415-88 88c0 48.585 39.415 88 88 88s88-39.415 88-88zM498.667 714.667c0 48.585 39.415 88 88 88s88-39.415 88-88c0-48.585-39.415-88-88-88s-88 39.415-88 88zM562.667 714.667c0-13.239 10.761-24 24-24s24 10.761 24 24c0 13.239-10.761 24-24 24s-24-10.761-24-24z" />
<glyph unicode="&#xe93d;" glyph-name="minus" d="M152 416c-17.673 0-32 14.327-32 32s14.327 32 32 32h720c17.673 0 32-14.327 32-32s-14.327-32-32-32h-720z" />
<glyph unicode="&#xe93e;" glyph-name="plus" d="M152 416c-17.673 0-32 14.327-32 32s14.327 32 32 32h720c17.673 0 32-14.327 32-32s-14.327-32-32-32h-720zM480 808c0 17.673 14.327 32 32 32s32-14.327 32-32v-720c0-17.673-14.327-32-32-32s-32 14.327-32 32v720z" />
<glyph unicode="&#xe93f;" glyph-name="arrow-down" d="M278.627 598.627c-12.497 12.497-32.758 12.497-45.255 0s-12.497-32.758 0-45.255l224.007-224.007c30.172-30.152 79.069-30.152 109.248 0.007l224 224c12.497 12.497 12.497 32.758 0 45.255s-32.758 12.497-45.255 0l-223.993-223.993c-5.181-5.178-13.578-5.178-18.752-0.007l-224 224z" />
<glyph unicode="&#xe940;" glyph-name="check" d="M808.812 832l-463.75-475.641-129.855 133.166-129.874-133.166 259.729-266.388 593.605 608.863z" />
<glyph unicode="&#xe941;" glyph-name="speakly-bubble" d="M184.137 0c-5.086 0-10.197 0.684-15.382 2.111-24.664 7.030-41.45 29.885-40.733 55.277-0.165-8.478 3.292 127.494 5.187 209.017 0.488 20.989 0.951 41.411 1.385 61.161 2.882 131.168 4.284 222.456 3.643 255.356-1.588 83.524 24.245 153.739 76.812 207.22 68.609 69.769 178.706 105.857 317.78 105.857 213.464 0 387.852-134.803 394.534-309.893 2.909-75.92-23.284-145.083-75.468-199.198-71.959-74.561-187.789-114.917-325.762-114.917-34.556 0-70.609 2.545-103.697 7.322-16.012 0-114.272-122.326-189.83-251.531-10.124-17.279-28.633-27.783-48.468-27.783zM395.907 594.163h13.027c0 30.229-24.566 54.709-54.832 54.709-30.264 0-54.81-24.478-54.81-54.709 0-30.2 24.559-54.709 54.81-54.709 30.253 0 54.832 24.51 54.832 54.709h-13.027zM564.396 594.163h13.027c0 30.235-24.551 54.709-54.832 54.709-30.266 0-54.832-24.48-54.832-54.709 0-30.198 24.579-54.709 54.832-54.709 30.268 0 54.832 24.504 54.832 54.709h-13.027zM732.866 594.163h13.027c0 30.231-24.547 54.709-54.81 54.709-30.283 0-54.853-24.476-54.853-54.709 0-30.203 24.583-54.709 54.853-54.709 30.251 0 54.81 24.508 54.81 54.709h-13.027z" />
</font>
</defs>
</svg>
